<svg xmlns="http://www.w3.org/2000/svg" width="1280" height="500" font-family="DejaVu Sans, Liberation Sans, Arial, sans-serif" fill="black"><rect width="100%" height="100%" fill="white" /><text x="622.3000000000001" y="27.400000000000002" font-size="18" text-anchor="middle">POA graph (9 nodes, 9 spine)</text><g opacity="0.6"><line x1="219.83" y1="246.5" x2="263.29" y2="246.5" stroke="#888888" stroke-width="2" /><path d="M 271.29 246.50 L 263.29 249.70 L 263.29 243.30 Z" stroke="none" stroke-width="0" fill="#888888" /></g><g opacity="0.6"><line x1="327.29" y1="246.5" x2="370.75" y2="246.5" stroke="#888888" stroke-width="2" /><path d="M 378.75 246.50 L 370.75 249.70 L 370.75 243.30 Z" stroke="none" stroke-width="0" fill="#888888" /></g><g opacity="0.6"><line x1="434.75" y1="246.5" x2="478.21000000000004" y2="246.5" stroke="#888888" stroke-width="2" /><path d="M 486.21 246.50 L 478.21 249.70 L 478.21 243.30 Z" stroke="none" stroke-width="0" fill="#888888" /></g><g opacity="0.6"><line x1="542.21" y1="246.5" x2="585.67" y2="246.5" stroke="#888888" stroke-width="2" /><path d="M 593.66 246.50 L 585.66 249.70 L 585.66 243.30 Z" stroke="none" stroke-width="0" fill="#888888" /></g><g opacity="0.6"><line x1="649.67" y1="246.5" x2="693.12" y2="246.5" stroke="#888888" stroke-width="2" /><path d="M 701.12 246.50 L 693.12 249.70 L 693.12 243.30 Z" stroke="none" stroke-width="0" fill="#888888" /></g><g opacity="0.6"><line x1="757.12" y1="246.5" x2="800.58" y2="246.5" stroke="#888888" stroke-width="2" /><path d="M 808.58 246.50 L 800.58 249.70 L 800.58 243.30 Z" stroke="none" stroke-width="0" fill="#888888" /></g><g opacity="0.6"><line x1="864.58" y1="246.5" x2="908.04" y2="246.5" stroke="#888888" stroke-width="2" /><path d="M 916.04 246.50 L 908.04 249.70 L 908.04 243.30 Z" stroke="none" stroke-width="0" fill="#888888" /></g><g opacity="0.6"><line x1="972.04" y1="246.5" x2="1015.5" y2="246.5" stroke="#888888" stroke-width="2" /><path d="M 1023.50 246.50 L 1015.50 249.70 L 1015.50 243.30 Z" stroke="none" stroke-width="0" fill="#888888" /></g><circle cx="191.83" cy="246.5" r="28" fill="#2166ac" stroke="#ffffff" stroke-width="1.5" /><circle cx="299.29" cy="246.5" r="28" fill="#2166ac" stroke="#ffffff" stroke-width="1.5" /><circle cx="406.75" cy="246.5" r="28" fill="#2166ac" stroke="#ffffff" stroke-width="1.5" /><circle cx="514.21" cy="246.5" r="28" fill="#2166ac" stroke="#ffffff" stroke-width="1.5" /><circle cx="621.67" cy="246.5" r="28" fill="#2166ac" stroke="#ffffff" stroke-width="1.5" /><circle cx="729.12" cy="246.5" r="28" fill="#2166ac" stroke="#ffffff" stroke-width="1.5" /><circle cx="836.58" cy="246.5" r="28" fill="#2166ac" stroke="#ffffff" stroke-width="1.5" /><circle cx="944.04" cy="246.5" r="28" fill="#2166ac" stroke="#ffffff" stroke-width="1.5" /><circle cx="1051.5" cy="246.5" r="28" fill="#2166ac" stroke="#ffffff" stroke-width="1.5" /><text x="191.83" y="250.70000000000002" font-size="12" text-anchor="middle" fill="#ffffff">0:C</text><text x="299.29" y="250.70000000000002" font-size="12" text-anchor="middle" fill="#ffffff">1:A</text><text x="406.75" y="250.70000000000002" font-size="12" text-anchor="middle" fill="#ffffff">2:T</text><text x="514.21" y="250.70000000000002" font-size="12" text-anchor="middle" fill="#ffffff">3:C</text><text x="621.67" y="250.70000000000002" font-size="12" text-anchor="middle" fill="#ffffff">4:A</text><text x="729.12" y="250.70000000000002" font-size="12" text-anchor="middle" fill="#ffffff">5:T</text><text x="836.58" y="250.70000000000002" font-size="12" text-anchor="middle" fill="#ffffff">6:C</text><text x="944.04" y="250.70000000000002" font-size="12" text-anchor="middle" fill="#ffffff">7:A</text><text x="1051.5" y="250.70000000000002" font-size="12" text-anchor="middle" fill="#ffffff">8:T</text><rect x="1190.6000000000001" y="34" width="80" height="38" fill="#ffffff" /><rect x="1190.6000000000001" y="34" width="80" height="38" fill="none" stroke="#000000" stroke-width="1" /><text x="1220.6000000000001" y="53.2" font-size="12" text-anchor="start">spine</text><circle cx="1205.6000000000001" cy="49" r="5" fill="#2166ac" /></svg>