<svg xmlns="http://www.w3.org/2000/svg" width="2480" height="500" font-family="DejaVu Sans, Liberation Sans, Arial, sans-serif" fill="black"><rect width="100%" height="100%" fill="white" /><text x="1222.3" y="27.400000000000002" font-size="18" text-anchor="middle">POA graph (19 nodes, 19 spine)</text><g opacity="0.6"><line x1="333.95" y1="246.5" x2="364.26" y2="246.5" stroke="#888888" stroke-width="5" /><path d="M 379.76 246.50 L 364.26 252.70 L 364.26 240.30 Z" stroke="none" stroke-width="0" fill="#888888" /></g><g opacity="0.6"><line x1="435.76" y1="246.5" x2="466.08" y2="246.5" stroke="#888888" stroke-width="5" /><path d="M 481.58 246.50 L 466.08 252.70 L 466.08 240.30 Z" stroke="none" stroke-width="0" fill="#888888" /></g><g opacity="0.6"><line x1="537.58" y1="246.5" x2="567.9" y2="246.5" stroke="#888888" stroke-width="5" /><path d="M 583.40 246.50 L 567.90 252.70 L 567.90 240.30 Z" stroke="none" stroke-width="0" fill="#888888" /></g><g opacity="0.6"><line x1="639.4" y1="246.5" x2="669.72" y2="246.5" stroke="#888888" stroke-width="5" /><path d="M 685.22 246.50 L 669.72 252.70 L 669.72 240.30 Z" stroke="none" stroke-width="0" fill="#888888" /></g><g opacity="0.6"><line x1="741.22" y1="246.5" x2="771.53" y2="246.5" stroke="#888888" stroke-width="5" /><path d="M 787.03 246.50 L 771.53 252.70 L 771.53 240.30 Z" stroke="none" stroke-width="0" fill="#888888" /></g><g opacity="0.6"><line x1="843.03" y1="246.5" x2="873.35" y2="246.5" stroke="#888888" stroke-width="5" /><path d="M 888.85 246.50 L 873.35 252.70 L 873.35 240.30 Z" stroke="none" stroke-width="0" fill="#888888" /></g><g opacity="0.6"><line x1="944.85" y1="246.5" x2="975.1700000000001" y2="246.5" stroke="#888888" stroke-width="5" /><path d="M 990.67 246.50 L 975.17 252.70 L 975.17 240.30 Z" stroke="none" stroke-width="0" fill="#888888" /></g><g opacity="0.6"><line x1="1046.67" y1="246.5" x2="1076.98" y2="246.5" stroke="#888888" stroke-width="5" /><path d="M 1092.48 246.50 L 1076.98 252.70 L 1076.98 240.30 Z" stroke="none" stroke-width="0" fill="#888888" /></g><g opacity="0.6"><line x1="1148.48" y1="246.5" x2="1178.8" y2="246.5" stroke="#888888" stroke-width="5" /><path d="M 1194.30 246.50 L 1178.80 252.70 L 1178.80 240.30 Z" stroke="none" stroke-width="0" fill="#888888" /></g><g opacity="0.6"><line x1="1250.3" y1="246.5" x2="1280.6200000000001" y2="246.5" stroke="#888888" stroke-width="5" /><path d="M 1296.12 246.50 L 1280.62 252.70 L 1280.62 240.30 Z" stroke="none" stroke-width="0" fill="#888888" /></g><g opacity="0.6"><line x1="1352.1200000000001" y1="246.5" x2="1382.43" y2="246.5" stroke="#888888" stroke-width="5" /><path d="M 1397.93 246.50 L 1382.43 252.70 L 1382.43 240.30 Z" stroke="none" stroke-width="0" fill="#888888" /></g><g opacity="0.6"><line x1="1453.93" y1="246.5" x2="1484.25" y2="246.5" stroke="#888888" stroke-width="5" /><path d="M 1499.75 246.50 L 1484.25 252.70 L 1484.25 240.30 Z" stroke="none" stroke-width="0" fill="#888888" /></g><g opacity="0.6"><line x1="1555.75" y1="246.5" x2="1586.07" y2="246.5" stroke="#888888" stroke-width="5" /><path d="M 1601.57 246.50 L 1586.07 252.70 L 1586.07 240.30 Z" stroke="none" stroke-width="0" fill="#888888" /></g><g opacity="0.6"><line x1="1657.57" y1="246.5" x2="1687.89" y2="246.5" stroke="#888888" stroke-width="5" /><path d="M 1703.39 246.50 L 1687.89 252.70 L 1687.89 240.30 Z" stroke="none" stroke-width="0" fill="#888888" /></g><g opacity="0.6"><line x1="1759.39" y1="246.5" x2="1801.0900000000001" y2="246.5" stroke="#888888" stroke-width="1" /><path d="M 1806.59 246.50 L 1801.09 248.70 L 1801.09 244.30 Z" stroke="none" stroke-width="0" fill="#888888" /></g><g opacity="0.6"><line x1="1859.82" y1="246.5" x2="1902.9" y2="246.5" stroke="#888888" stroke-width="1" /><path d="M 1908.40 246.50 L 1902.90 248.70 L 1902.90 244.30 Z" stroke="none" stroke-width="0" fill="#888888" /></g><g opacity="0.6"><line x1="1961.63" y1="246.5" x2="2004.72" y2="246.5" stroke="#888888" stroke-width="1" /><path d="M 2010.22 246.50 L 2004.72 248.70 L 2004.72 244.30 Z" stroke="none" stroke-width="0" fill="#888888" /></g><g opacity="0.6"><line x1="2063.45" y1="246.5" x2="2106.54" y2="246.5" stroke="#888888" stroke-width="1" /><path d="M 2112.04 246.50 L 2106.54 248.70 L 2106.54 244.30 Z" stroke="none" stroke-width="0" fill="#888888" /></g><circle cx="305.95" cy="246.5" r="28" fill="#2166ac" stroke="#ffffff" stroke-width="1.5" /><circle cx="407.76" cy="246.5" r="28" fill="#2166ac" stroke="#ffffff" stroke-width="1.5" /><circle cx="509.58" cy="246.5" r="28" fill="#2166ac" stroke="#ffffff" stroke-width="1.5" /><circle cx="611.4" cy="246.5" r="28" fill="#2166ac" stroke="#ffffff" stroke-width="1.5" /><circle cx="713.22" cy="246.5" r="28" fill="#2166ac" stroke="#ffffff" stroke-width="1.5" /><circle cx="815.03" cy="246.5" r="28" fill="#2166ac" stroke="#ffffff" stroke-width="1.5" /><circle cx="916.85" cy="246.5" r="28" fill="#2166ac" stroke="#ffffff" stroke-width="1.5" /><circle cx="1018.6700000000001" cy="246.5" r="28" fill="#2166ac" stroke="#ffffff" stroke-width="1.5" /><circle cx="1120.48" cy="246.5" r="28" fill="#2166ac" stroke="#ffffff" stroke-width="1.5" /><circle cx="1222.3" cy="246.5" r="28" fill="#2166ac" stroke="#ffffff" stroke-width="1.5" /><circle cx="1324.1200000000001" cy="246.5" r="28" fill="#2166ac" stroke="#ffffff" stroke-width="1.5" /><circle cx="1425.93" cy="246.5" r="28" fill="#2166ac" stroke="#ffffff" stroke-width="1.5" /><circle cx="1527.75" cy="246.5" r="28" fill="#2166ac" stroke="#ffffff" stroke-width="1.5" /><circle cx="1629.57" cy="246.5" r="28" fill="#2166ac" stroke="#ffffff" stroke-width="1.5" /><circle cx="1731.39" cy="246.5" r="28" fill="#2166ac" stroke="#ffffff" stroke-width="1.5" /><circle cx="1833.2" cy="246.5" r="26.62" fill="#2166ac" stroke="#ffffff" stroke-width="1.5" /><circle cx="1935.02" cy="246.5" r="26.62" fill="#2166ac" stroke="#ffffff" stroke-width="1.5" /><circle cx="2036.8400000000001" cy="246.5" r="26.62" fill="#2166ac" stroke="#ffffff" stroke-width="1.5" /><circle cx="2138.65" cy="246.5" r="26.62" fill="#2166ac" stroke="#ffffff" stroke-width="1.5" /><text x="305.95" y="250.70000000000002" font-size="12" text-anchor="middle" fill="#ffffff">0:G</text><text x="407.76" y="250.70000000000002" font-size="12" text-anchor="middle" fill="#ffffff">1:C</text><text x="509.58" y="250.70000000000002" font-size="12" text-anchor="middle" fill="#ffffff">2:T</text><text x="611.4" y="250.70000000000002" font-size="12" text-anchor="middle" fill="#ffffff">3:A</text><text x="713.22" y="250.70000000000002" font-size="12" text-anchor="middle" fill="#ffffff">4:G</text><text x="815.03" y="250.70000000000002" font-size="12" text-anchor="middle" fill="#ffffff">5:C</text><text x="916.85" y="250.70000000000002" font-size="12" text-anchor="middle" fill="#ffffff">6:T</text><text x="1018.6700000000001" y="250.70000000000002" font-size="12" text-anchor="middle" fill="#ffffff">7:A</text><text x="1120.48" y="250.70000000000002" font-size="12" text-anchor="middle" fill="#ffffff">8:G</text><text x="1222.3" y="250.70000000000002" font-size="12" text-anchor="middle" fill="#ffffff">9:C</text><text x="1324.1200000000001" y="250.70000000000002" font-size="12" text-anchor="middle" fill="#ffffff">10:T</text><text x="1425.93" y="250.70000000000002" font-size="12" text-anchor="middle" fill="#ffffff">11:A</text><text x="1527.75" y="250.70000000000002" font-size="12" text-anchor="middle" fill="#ffffff">12:G</text><text x="1629.57" y="250.70000000000002" font-size="12" text-anchor="middle" fill="#ffffff">13:C</text><text x="1731.39" y="250.70000000000002" font-size="12" text-anchor="middle" fill="#ffffff">14:T</text><text x="1833.2" y="250.70000000000002" font-size="12" text-anchor="middle" fill="#ffffff">15:A</text><text x="1935.02" y="250.70000000000002" font-size="12" text-anchor="middle" fill="#ffffff">16:G</text><text x="2036.8400000000001" y="250.70000000000002" font-size="12" text-anchor="middle" fill="#ffffff">17:C</text><text x="2138.65" y="250.70000000000002" font-size="12" text-anchor="middle" fill="#ffffff">18:T</text><rect x="2390.6" y="34" width="80" height="38" fill="#ffffff" /><rect x="2390.6" y="34" width="80" height="38" fill="none" stroke="#000000" stroke-width="1" /><text x="2420.6" y="53.2" font-size="12" text-anchor="start">spine</text><circle cx="2405.6" cy="49" r="5" fill="#2166ac" /></svg>