<svg xmlns="http://www.w3.org/2000/svg" width="3800" height="500" font-family="DejaVu Sans, Liberation Sans, Arial, sans-serif" fill="black"><rect width="100%" height="100%" fill="white" /><text x="1882.3" y="27.400000000000002" font-size="18" text-anchor="middle">POA graph (34 nodes, 30 spine)</text><g opacity="0.6"><line x1="459.35" y1="246.5" x2="487.91" y2="246.5" stroke="#888888" stroke-width="5" /><path d="M 503.41 246.50 L 487.91 252.70 L 487.91 240.30 Z" stroke="none" stroke-width="0" fill="#888888" /></g><g opacity="0.6"><line x1="559.41" y1="246.5" x2="587.98" y2="246.5" stroke="#888888" stroke-width="5" /><path d="M 603.48 246.50 L 587.98 252.70 L 587.98 240.30 Z" stroke="none" stroke-width="0" fill="#888888" /></g><g opacity="0.6"><path d="M 644.85 221.90 Q 633.48 187.96 657.17 181.10" stroke="#888888" stroke-width="3.67" fill="none" /><path d="M 668.86 177.71 L 658.52 185.77 L 655.82 176.42 Z" stroke="none" stroke-width="0" fill="#888888" /></g><g opacity="0.6"><line x1="659.48" y1="246.5" x2="702.54" y2="246.5" stroke="#888888" stroke-width="1" /><path d="M 708.04 246.50 L 702.54 248.70 L 702.54 244.30 Z" stroke="none" stroke-width="0" fill="#888888" /></g><g opacity="0.6"><path d="M 707.91 156.74 Q 1229.87 -62.21 1694.09 237.46" stroke="#888888" stroke-width="3.67" fill="none" /><path d="M 1704.31 244.06 L 1691.45 241.55 L 1696.73 233.37 Z" stroke="none" stroke-width="0" fill="#888888" /></g><g opacity="0.6"><line x1="755.04" y1="246.5" x2="802.61" y2="246.5" stroke="#888888" stroke-width="1" /><path d="M 808.11 246.50 L 802.61 248.70 L 802.61 244.30 Z" stroke="none" stroke-width="0" fill="#888888" /></g><g opacity="0.6"><line x1="855.11" y1="246.5" x2="902.6800000000001" y2="246.5" stroke="#888888" stroke-width="1" /><path d="M 908.18 246.50 L 902.68 248.70 L 902.68 244.30 Z" stroke="none" stroke-width="0" fill="#888888" /></g><g opacity="0.6"><line x1="955.1800000000001" y1="246.5" x2="1002.74" y2="246.5" stroke="#888888" stroke-width="1" /><path d="M 1008.24 246.50 L 1002.74 248.70 L 1002.74 244.30 Z" stroke="none" stroke-width="0" fill="#888888" /></g><g opacity="0.6"><line x1="1055.24" y1="246.5" x2="1102.81" y2="246.5" stroke="#888888" stroke-width="1" /><path d="M 1108.31 246.50 L 1102.81 248.70 L 1102.81 244.30 Z" stroke="none" stroke-width="0" fill="#888888" /></g><g opacity="0.6"><line x1="1155.31" y1="246.5" x2="1202.8700000000001" y2="246.5" stroke="#888888" stroke-width="1" /><path d="M 1208.37 246.50 L 1202.87 248.70 L 1202.87 244.30 Z" stroke="none" stroke-width="0" fill="#888888" /></g><g opacity="0.6"><line x1="1255.3700000000001" y1="246.5" x2="1302.94" y2="246.5" stroke="#888888" stroke-width="1" /><path d="M 1308.44 246.50 L 1302.94 248.70 L 1302.94 244.30 Z" stroke="none" stroke-width="0" fill="#888888" /></g><g opacity="0.6"><line x1="1355.44" y1="246.5" x2="1403" y2="246.5" stroke="#888888" stroke-width="1" /><path d="M 1408.50 246.50 L 1403.00 248.70 L 1403.00 244.30 Z" stroke="none" stroke-width="0" fill="#888888" /></g><g opacity="0.6"><line x1="1455.5" y1="246.5" x2="1503.07" y2="246.5" stroke="#888888" stroke-width="1" /><path d="M 1508.57 246.50 L 1503.07 248.70 L 1503.07 244.30 Z" stroke="none" stroke-width="0" fill="#888888" /></g><g opacity="0.6"><line x1="1555.57" y1="246.5" x2="1603.14" y2="246.5" stroke="#888888" stroke-width="1" /><path d="M 1608.64 246.50 L 1603.14 248.70 L 1603.14 244.30 Z" stroke="none" stroke-width="0" fill="#888888" /></g><g opacity="0.6"><line x1="1655.64" y1="246.5" x2="1698.7" y2="246.5" stroke="#888888" stroke-width="1" /><path d="M 1704.20 246.50 L 1698.70 248.70 L 1698.70 244.30 Z" stroke="none" stroke-width="0" fill="#888888" /></g><g opacity="0.6"><line x1="1760.2" y1="246.5" x2="1793.6000000000001" y2="246.5" stroke="#888888" stroke-width="3.67" /><path d="M 1805.77 246.50 L 1793.60 251.37 L 1793.60 241.63 Z" stroke="none" stroke-width="0" fill="#888888" /></g><g opacity="0.6"><path d="M 1756.07 231.86 Q 1784.23 162.94 1856.77 166.45" stroke="#888888" stroke-width="1" fill="none" /><path d="M 1862.27 166.72 L 1856.67 168.65 L 1856.88 164.25 Z" stroke="none" stroke-width="0" fill="#888888" /></g><g opacity="0.6"><line x1="1858.77" y1="246.5" x2="1892.17" y2="246.5" stroke="#888888" stroke-width="3.67" /><path d="M 1904.33 246.50 L 1892.17 251.37 L 1892.17 241.63 Z" stroke="none" stroke-width="0" fill="#888888" /></g><g opacity="0.6"><path d="M 1893.52 175.08 Q 1930.33 187.96 1920.71 216.68" stroke="#888888" stroke-width="1" fill="none" /><path d="M 1918.96 221.90 L 1918.62 215.98 L 1922.80 217.38 Z" stroke="none" stroke-width="0" fill="#888888" /></g><g opacity="0.6"><line x1="1960.33" y1="246.5" x2="1988.9" y2="246.5" stroke="#888888" stroke-width="5" /><path d="M 2004.40 246.50 L 1988.90 252.70 L 1988.90 240.30 Z" stroke="none" stroke-width="0" fill="#888888" /></g><g opacity="0.6"><line x1="2060.4" y1="246.5" x2="2088.96" y2="246.5" stroke="#888888" stroke-width="5" /><path d="M 2104.46 246.50 L 2088.96 252.70 L 2088.96 240.30 Z" stroke="none" stroke-width="0" fill="#888888" /></g><g opacity="0.6"><line x1="2160.46" y1="246.5" x2="2189.03" y2="246.5" stroke="#888888" stroke-width="5" /><path d="M 2204.53 246.50 L 2189.03 252.70 L 2189.03 240.30 Z" stroke="none" stroke-width="0" fill="#888888" /></g><g opacity="0.6"><line x1="2260.53" y1="246.5" x2="2293.93" y2="246.5" stroke="#888888" stroke-width="3.67" /><path d="M 2306.10 246.50 L 2293.93 251.37 L 2293.93 241.63 Z" stroke="none" stroke-width="0" fill="#888888" /></g><g opacity="0.6"><path d="M 2256.40 231.86 Q 2284.56 162.94 2357.10 166.45" stroke="#888888" stroke-width="1" fill="none" /><path d="M 2362.60 166.72 L 2357.00 168.65 L 2357.21 164.25 Z" stroke="none" stroke-width="0" fill="#888888" /></g><g opacity="0.6"><line x1="2359.1" y1="246.5" x2="2392.4900000000002" y2="246.5" stroke="#888888" stroke-width="3.67" /><path d="M 2404.66 246.50 L 2392.49 251.37 L 2392.49 241.63 Z" stroke="none" stroke-width="0" fill="#888888" /></g><g opacity="0.6"><path d="M 2393.85 175.08 Q 2430.66 187.96 2421.04 216.68" stroke="#888888" stroke-width="1" fill="none" /><path d="M 2419.29 221.90 L 2418.95 215.98 L 2423.13 217.38 Z" stroke="none" stroke-width="0" fill="#888888" /></g><g opacity="0.6"><line x1="2460.66" y1="246.5" x2="2489.23" y2="246.5" stroke="#888888" stroke-width="5" /><path d="M 2504.73 246.50 L 2489.23 252.70 L 2489.23 240.30 Z" stroke="none" stroke-width="0" fill="#888888" /></g><g opacity="0.6"><line x1="2560.73" y1="246.5" x2="2589.29" y2="246.5" stroke="#888888" stroke-width="5" /><path d="M 2604.79 246.50 L 2589.29 252.70 L 2589.29 240.30 Z" stroke="none" stroke-width="0" fill="#888888" /></g><g opacity="0.6"><line x1="2660.79" y1="246.5" x2="2689.36" y2="246.5" stroke="#888888" stroke-width="5" /><path d="M 2704.86 246.50 L 2689.36 252.70 L 2689.36 240.30 Z" stroke="none" stroke-width="0" fill="#888888" /></g><g opacity="0.6"><line x1="2760.86" y1="246.5" x2="2794.26" y2="246.5" stroke="#888888" stroke-width="3.67" /><path d="M 2806.42 246.50 L 2794.26 251.37 L 2794.26 241.63 Z" stroke="none" stroke-width="0" fill="#888888" /></g><g opacity="0.6"><path d="M 2756.73 231.86 Q 2784.89 162.94 2857.43 166.45" stroke="#888888" stroke-width="1" fill="none" /><path d="M 2862.93 166.72 L 2857.33 168.65 L 2857.54 164.25 Z" stroke="none" stroke-width="0" fill="#888888" /></g><g opacity="0.6"><line x1="2859.42" y1="246.5" x2="2892.82" y2="246.5" stroke="#888888" stroke-width="3.67" /><path d="M 2904.99 246.50 L 2892.82 251.37 L 2892.82 241.63 Z" stroke="none" stroke-width="0" fill="#888888" /></g><g opacity="0.6"><path d="M 2894.18 175.08 Q 2930.99 187.96 2921.37 216.68" stroke="#888888" stroke-width="1" fill="none" /><path d="M 2919.62 221.90 L 2919.28 215.98 L 2923.45 217.38 Z" stroke="none" stroke-width="0" fill="#888888" /></g><g opacity="0.6"><line x1="2960.9900000000002" y1="246.5" x2="2989.56" y2="246.5" stroke="#888888" stroke-width="5" /><path d="M 3005.06 246.50 L 2989.56 252.70 L 2989.56 240.30 Z" stroke="none" stroke-width="0" fill="#888888" /></g><g opacity="0.6"><line x1="3061.06" y1="246.5" x2="3089.62" y2="246.5" stroke="#888888" stroke-width="5" /><path d="M 3105.12 246.50 L 3089.62 252.70 L 3089.62 240.30 Z" stroke="none" stroke-width="0" fill="#888888" /></g><g opacity="0.6"><line x1="3161.12" y1="246.5" x2="3189.69" y2="246.5" stroke="#888888" stroke-width="5" /><path d="M 3205.19 246.50 L 3189.69 252.70 L 3189.69 240.30 Z" stroke="none" stroke-width="0" fill="#888888" /></g><g opacity="0.6"><line x1="3261.19" y1="246.5" x2="3304.25" y2="246.5" stroke="#888888" stroke-width="1" /><path d="M 3309.75 246.50 L 3304.25 248.70 L 3304.25 244.30 Z" stroke="none" stroke-width="0" fill="#888888" /></g><circle cx="431.35" cy="246.5" r="28" fill="#2166ac" stroke="#ffffff" stroke-width="1.5" /><circle cx="531.41" cy="246.5" r="28" fill="#2166ac" stroke="#ffffff" stroke-width="1.5" /><circle cx="631.48" cy="246.5" r="28" fill="#2166ac" stroke="#ffffff" stroke-width="1.5" /><circle cx="681.51" cy="154.43" r="26.5" fill="#aaaaaa" stroke="#ffffff" stroke-width="1.5" /><circle cx="731.54" cy="246.5" r="23.5" fill="#2166ac" stroke="#ffffff" stroke-width="1.5" /><circle cx="831.61" cy="246.5" r="23.5" fill="#2166ac" stroke="#ffffff" stroke-width="1.5" /><circle cx="931.6800000000001" cy="246.5" r="23.5" fill="#2166ac" stroke="#ffffff" stroke-width="1.5" /><circle cx="1031.74" cy="246.5" r="23.5" fill="#2166ac" stroke="#ffffff" stroke-width="1.5" /><circle cx="1131.81" cy="246.5" r="23.5" fill="#2166ac" stroke="#ffffff" stroke-width="1.5" /><circle cx="1231.8700000000001" cy="246.5" r="23.5" fill="#2166ac" stroke="#ffffff" stroke-width="1.5" /><circle cx="1331.94" cy="246.5" r="23.5" fill="#2166ac" stroke="#ffffff" stroke-width="1.5" /><circle cx="1432" cy="246.5" r="23.5" fill="#2166ac" stroke="#ffffff" stroke-width="1.5" /><circle cx="1532.07" cy="246.5" r="23.5" fill="#2166ac" stroke="#ffffff" stroke-width="1.5" /><circle cx="1632.14" cy="246.5" r="23.5" fill="#2166ac" stroke="#ffffff" stroke-width="1.5" /><circle cx="1732.2" cy="246.5" r="28" fill="#2166ac" stroke="#ffffff" stroke-width="1.5" /><circle cx="1832.27" cy="246.5" r="26.5" fill="#2166ac" stroke="#ffffff" stroke-width="1.5" /><circle cx="1882.3" cy="154.43" r="23.5" fill="#aaaaaa" stroke="#ffffff" stroke-width="1.5" /><circle cx="1932.33" cy="246.5" r="28" fill="#2166ac" stroke="#ffffff" stroke-width="1.5" /><circle cx="2032.4" cy="246.5" r="28" fill="#2166ac" stroke="#ffffff" stroke-width="1.5" /><circle cx="2132.46" cy="246.5" r="28" fill="#2166ac" stroke="#ffffff" stroke-width="1.5" /><circle cx="2232.53" cy="246.5" r="28" fill="#2166ac" stroke="#ffffff" stroke-width="1.5" /><circle cx="2332.6" cy="246.5" r="26.5" fill="#2166ac" stroke="#ffffff" stroke-width="1.5" /><circle cx="2382.63" cy="154.43" r="23.5" fill="#aaaaaa" stroke="#ffffff" stroke-width="1.5" /><circle cx="2432.66" cy="246.5" r="28" fill="#2166ac" stroke="#ffffff" stroke-width="1.5" /><circle cx="2532.73" cy="246.5" r="28" fill="#2166ac" stroke="#ffffff" stroke-width="1.5" /><circle cx="2632.79" cy="246.5" r="28" fill="#2166ac" stroke="#ffffff" stroke-width="1.5" /><circle cx="2732.86" cy="246.5" r="28" fill="#2166ac" stroke="#ffffff" stroke-width="1.5" /><circle cx="2832.92" cy="246.5" r="26.5" fill="#2166ac" stroke="#ffffff" stroke-width="1.5" /><circle cx="2882.96" cy="154.43" r="23.5" fill="#aaaaaa" stroke="#ffffff" stroke-width="1.5" /><circle cx="2932.9900000000002" cy="246.5" r="28" fill="#2166ac" stroke="#ffffff" stroke-width="1.5" /><circle cx="3033.06" cy="246.5" r="28" fill="#2166ac" stroke="#ffffff" stroke-width="1.5" /><circle cx="3133.12" cy="246.5" r="28" fill="#2166ac" stroke="#ffffff" stroke-width="1.5" /><circle cx="3233.19" cy="246.5" r="28" fill="#2166ac" stroke="#ffffff" stroke-width="1.5" /><circle cx="3333.25" cy="246.5" r="23.5" fill="#2166ac" stroke="#ffffff" stroke-width="1.5" /><text x="431.35" y="250.70000000000002" font-size="12" text-anchor="middle" fill="#ffffff">0:A</text><text x="531.41" y="250.70000000000002" font-size="12" text-anchor="middle" fill="#ffffff">1:A</text><text x="631.48" y="250.70000000000002" font-size="12" text-anchor="middle" fill="#ffffff">2:A</text><text x="681.51" y="158.63" font-size="12" text-anchor="middle" fill="#ffffff">3:A</text><text x="731.54" y="250.70000000000002" font-size="12" text-anchor="middle" fill="#ffffff">4:G</text><text x="831.61" y="250.70000000000002" font-size="12" text-anchor="middle" fill="#ffffff">5:T</text><text x="931.6800000000001" y="250.70000000000002" font-size="12" text-anchor="middle" fill="#ffffff">6:A</text><text x="1031.74" y="250.70000000000002" font-size="12" text-anchor="middle" fill="#ffffff">7:A</text><text x="1131.81" y="250.70000000000002" font-size="12" text-anchor="middle" fill="#ffffff">8:A</text><text x="1231.8700000000001" y="250.70000000000002" font-size="12" text-anchor="middle" fill="#ffffff">9:G</text><text x="1331.94" y="250.70000000000002" font-size="12" text-anchor="middle" fill="#ffffff">10:T</text><text x="1432" y="250.70000000000002" font-size="12" text-anchor="middle" fill="#ffffff">11:A</text><text x="1532.07" y="250.70000000000002" font-size="12" text-anchor="middle" fill="#ffffff">12:A</text><text x="1632.14" y="250.70000000000002" font-size="12" text-anchor="middle" fill="#ffffff">13:A</text><text x="1732.2" y="250.70000000000002" font-size="12" text-anchor="middle" fill="#ffffff">14:G</text><text x="1832.27" y="250.70000000000002" font-size="12" text-anchor="middle" fill="#ffffff">15:A</text><text x="1882.3" y="158.63" font-size="12" text-anchor="middle" fill="#ffffff">16:T</text><text x="1932.33" y="250.70000000000002" font-size="12" text-anchor="middle" fill="#ffffff">17:A</text><text x="2032.4" y="250.70000000000002" font-size="12" text-anchor="middle" fill="#ffffff">18:A</text><text x="2132.46" y="250.70000000000002" font-size="12" text-anchor="middle" fill="#ffffff">19:A</text><text x="2232.53" y="250.70000000000002" font-size="12" text-anchor="middle" fill="#ffffff">20:G</text><text x="2332.6" y="250.70000000000002" font-size="12" text-anchor="middle" fill="#ffffff">21:A</text><text x="2382.63" y="158.63" font-size="12" text-anchor="middle" fill="#ffffff">22:T</text><text x="2432.66" y="250.70000000000002" font-size="12" text-anchor="middle" fill="#ffffff">23:A</text><text x="2532.73" y="250.70000000000002" font-size="12" text-anchor="middle" fill="#ffffff">24:A</text><text x="2632.79" y="250.70000000000002" font-size="12" text-anchor="middle" fill="#ffffff">25:A</text><text x="2732.86" y="250.70000000000002" font-size="12" text-anchor="middle" fill="#ffffff">26:G</text><text x="2832.92" y="250.70000000000002" font-size="12" text-anchor="middle" fill="#ffffff">27:A</text><text x="2882.96" y="158.63" font-size="12" text-anchor="middle" fill="#ffffff">28:T</text><text x="2932.9900000000002" y="250.70000000000002" font-size="12" text-anchor="middle" fill="#ffffff">29:A</text><text x="3033.06" y="250.70000000000002" font-size="12" text-anchor="middle" fill="#ffffff">30:A</text><text x="3133.12" y="250.70000000000002" font-size="12" text-anchor="middle" fill="#ffffff">31:A</text><text x="3233.19" y="250.70000000000002" font-size="12" text-anchor="middle" fill="#ffffff">32:G</text><text x="3333.25" y="250.70000000000002" font-size="12" text-anchor="middle" fill="#ffffff">33:T</text><rect x="3710.6" y="34" width="80" height="56" fill="#ffffff" /><rect x="3710.6" y="34" width="80" height="56" fill="none" stroke="#000000" stroke-width="1" /><text x="3740.6" y="53.2" font-size="12" text-anchor="start">spine</text><circle cx="3725.6" cy="49" r="5" fill="#2166ac" /><text x="3740.6" y="71.2" font-size="12" text-anchor="start">other</text><circle cx="3725.6" cy="67" r="5" fill="#aaaaaa" /></svg>