<svg xmlns="http://www.w3.org/2000/svg" width="1640" height="500" font-family="DejaVu Sans, Liberation Sans, Arial, sans-serif" fill="black"><rect width="100%" height="100%" fill="white" /><text x="802.3000000000001" y="27.400000000000002" font-size="18" text-anchor="middle">POA graph (15 nodes, 12 spine)</text><g opacity="0.6"><line x1="254.15" y1="246.5" x2="287.40000000000003" y2="246.5" stroke="#888888" stroke-width="5" /><path d="M 302.90 246.50 L 287.40 252.70 L 287.40 240.30 Z" stroke="none" stroke-width="0" fill="#888888" /></g><g opacity="0.6"><line x1="358.90000000000003" y1="246.5" x2="392.16" y2="246.5" stroke="#888888" stroke-width="5" /><path d="M 407.66 246.50 L 392.16 252.70 L 392.16 240.30 Z" stroke="none" stroke-width="0" fill="#888888" /></g><g opacity="0.6"><line x1="463.66" y1="246.5" x2="496.91" y2="246.5" stroke="#888888" stroke-width="5" /><path d="M 512.41 246.50 L 496.91 252.70 L 496.91 240.30 Z" stroke="none" stroke-width="0" fill="#888888" /></g><g opacity="0.6"><line x1="568.41" y1="246.5" x2="606.5" y2="246.5" stroke="#888888" stroke-width="3.67" /><path d="M 618.67 246.50 L 606.50 251.37 L 606.50 241.63 Z" stroke="none" stroke-width="0" fill="#888888" /></g><g opacity="0.6"><path d="M 554.26 222.16 Q 543.58 187.37 575.95 176.59" stroke="#888888" stroke-width="1" fill="none" /><path d="M 581.17 174.86 L 576.65 178.68 L 575.26 174.51 Z" stroke="none" stroke-width="0" fill="#888888" /></g><g opacity="0.6"><line x1="671.67" y1="246.5" x2="709.76" y2="246.5" stroke="#888888" stroke-width="3.67" /><path d="M 721.92 246.50 L 709.76 251.37 L 709.76 241.63 Z" stroke="none" stroke-width="0" fill="#888888" /></g><g opacity="0.6"><line x1="616.29" y1="154.43" x2="668.54" y2="154.43" stroke="#888888" stroke-width="1" /><path d="M 674.04 154.43 L 668.54 156.63 L 668.54 152.23 Z" stroke="none" stroke-width="0" fill="#888888" /></g><g opacity="0.6"><line x1="721.04" y1="154.43" x2="773.3000000000001" y2="154.43" stroke="#888888" stroke-width="1" /><path d="M 778.80 154.43 L 773.30 156.63 L 773.30 152.23 Z" stroke="none" stroke-width="0" fill="#888888" /></g><g opacity="0.6"><path d="M 790.68 174.86 Q 799.13 213.56 769.11 220.86" stroke="#888888" stroke-width="1" fill="none" /><path d="M 763.77 222.16 L 768.59 218.72 L 769.63 223.00 Z" stroke="none" stroke-width="0" fill="#888888" /></g><g opacity="0.6"><line x1="777.9200000000001" y1="246.5" x2="811.1800000000001" y2="246.5" stroke="#888888" stroke-width="5" /><path d="M 826.68 246.50 L 811.18 252.70 L 811.18 240.30 Z" stroke="none" stroke-width="0" fill="#888888" /></g><g opacity="0.6"><line x1="882.6800000000001" y1="246.5" x2="915.9300000000001" y2="246.5" stroke="#888888" stroke-width="5" /><path d="M 931.43 246.50 L 915.93 252.70 L 915.93 240.30 Z" stroke="none" stroke-width="0" fill="#888888" /></g><g opacity="0.6"><line x1="987.4300000000001" y1="246.5" x2="1020.69" y2="246.5" stroke="#888888" stroke-width="5" /><path d="M 1036.19 246.50 L 1020.69 252.70 L 1020.69 240.30 Z" stroke="none" stroke-width="0" fill="#888888" /></g><g opacity="0.6"><line x1="1092.19" y1="246.5" x2="1125.44" y2="246.5" stroke="#888888" stroke-width="5" /><path d="M 1140.94 246.50 L 1125.44 252.70 L 1125.44 240.30 Z" stroke="none" stroke-width="0" fill="#888888" /></g><g opacity="0.6"><line x1="1196.94" y1="246.5" x2="1230.2" y2="246.5" stroke="#888888" stroke-width="5" /><path d="M 1245.70 246.50 L 1230.20 252.70 L 1230.20 240.30 Z" stroke="none" stroke-width="0" fill="#888888" /></g><g opacity="0.6"><line x1="1301.7" y1="246.5" x2="1334.95" y2="246.5" stroke="#888888" stroke-width="5" /><path d="M 1350.45 246.50 L 1334.95 252.70 L 1334.95 240.30 Z" stroke="none" stroke-width="0" fill="#888888" /></g><circle cx="226.15" cy="246.5" r="28" fill="#2166ac" stroke="#ffffff" stroke-width="1.5" /><circle cx="330.90000000000003" cy="246.5" r="28" fill="#2166ac" stroke="#ffffff" stroke-width="1.5" /><circle cx="435.66" cy="246.5" r="28" fill="#2166ac" stroke="#ffffff" stroke-width="1.5" /><circle cx="540.41" cy="246.5" r="28" fill="#2166ac" stroke="#ffffff" stroke-width="1.5" /><circle cx="645.17" cy="246.5" r="26.5" fill="#2166ac" stroke="#ffffff" stroke-width="1.5" /><circle cx="592.79" cy="154.43" r="23.5" fill="#aaaaaa" stroke="#ffffff" stroke-width="1.5" /><circle cx="697.54" cy="154.43" r="23.5" fill="#aaaaaa" stroke="#ffffff" stroke-width="1.5" /><circle cx="802.3000000000001" cy="154.43" r="23.5" fill="#aaaaaa" stroke="#ffffff" stroke-width="1.5" /><circle cx="749.92" cy="246.5" r="28" fill="#2166ac" stroke="#ffffff" stroke-width="1.5" /><circle cx="854.6800000000001" cy="246.5" r="28" fill="#2166ac" stroke="#ffffff" stroke-width="1.5" /><circle cx="959.4300000000001" cy="246.5" r="28" fill="#2166ac" stroke="#ffffff" stroke-width="1.5" /><circle cx="1064.19" cy="246.5" r="28" fill="#2166ac" stroke="#ffffff" stroke-width="1.5" /><circle cx="1168.94" cy="246.5" r="28" fill="#2166ac" stroke="#ffffff" stroke-width="1.5" /><circle cx="1273.7" cy="246.5" r="28" fill="#2166ac" stroke="#ffffff" stroke-width="1.5" /><circle cx="1378.45" cy="246.5" r="28" fill="#2166ac" stroke="#ffffff" stroke-width="1.5" /><text x="226.15" y="250.70000000000002" font-size="12" text-anchor="middle" fill="#ffffff">0:A</text><text x="330.90000000000003" y="250.70000000000002" font-size="12" text-anchor="middle" fill="#ffffff">1:C</text><text x="435.66" y="250.70000000000002" font-size="12" text-anchor="middle" fill="#ffffff">2:G</text><text x="540.41" y="250.70000000000002" font-size="12" text-anchor="middle" fill="#ffffff">3:T</text><text x="645.17" y="250.70000000000002" font-size="12" text-anchor="middle" fill="#ffffff">4:A</text><text x="592.79" y="158.63" font-size="12" text-anchor="middle" fill="#ffffff">5:G</text><text x="697.54" y="158.63" font-size="12" text-anchor="middle" fill="#ffffff">6:G</text><text x="802.3000000000001" y="158.63" font-size="12" text-anchor="middle" fill="#ffffff">7:A</text><text x="749.92" y="250.70000000000002" font-size="12" text-anchor="middle" fill="#ffffff">8:C</text><text x="854.6800000000001" y="250.70000000000002" font-size="12" text-anchor="middle" fill="#ffffff">9:G</text><text x="959.4300000000001" y="250.70000000000002" font-size="12" text-anchor="middle" fill="#ffffff">10:T</text><text x="1064.19" y="250.70000000000002" font-size="12" text-anchor="middle" fill="#ffffff">11:A</text><text x="1168.94" y="250.70000000000002" font-size="12" text-anchor="middle" fill="#ffffff">12:C</text><text x="1273.7" y="250.70000000000002" font-size="12" text-anchor="middle" fill="#ffffff">13:G</text><text x="1378.45" y="250.70000000000002" font-size="12" text-anchor="middle" fill="#ffffff">14:T</text><rect x="1550.6000000000001" y="34" width="80" height="56" fill="#ffffff" /><rect x="1550.6000000000001" y="34" width="80" height="56" fill="none" stroke="#000000" stroke-width="1" /><text x="1580.6000000000001" y="53.2" font-size="12" text-anchor="start">spine</text><circle cx="1565.6000000000001" cy="49" r="5" fill="#2166ac" /><text x="1580.6000000000001" y="71.2" font-size="12" text-anchor="start">other</text><circle cx="1565.6000000000001" cy="67" r="5" fill="#aaaaaa" /></svg>