<svg xmlns="http://www.w3.org/2000/svg" width="2840" height="500" font-family="DejaVu Sans, Liberation Sans, Arial, sans-serif" fill="black"><rect width="100%" height="100%" fill="white" /><text x="1382.3" y="27.400000000000002" font-size="18" text-anchor="middle">POA graph (24 nodes, 22 spine) [read overlay]</text><g opacity="0.6"><line x1="364.35" y1="246.5" x2="392.46000000000004" y2="246.5" stroke="#888888" stroke-width="5" /><path d="M 407.96 246.50 L 392.46 252.70 L 392.46 240.30 Z" stroke="none" stroke-width="0" fill="#888888" /></g><g opacity="0.6"><line x1="463.96000000000004" y1="246.5" x2="492.08" y2="246.5" stroke="#888888" stroke-width="5" /><path d="M 507.58 246.50 L 492.08 252.70 L 492.08 240.30 Z" stroke="none" stroke-width="0" fill="#888888" /></g><g opacity="0.6"><line x1="563.58" y1="246.5" x2="591.69" y2="246.5" stroke="#888888" stroke-width="5" /><path d="M 607.19 246.50 L 591.69 252.70 L 591.69 240.30 Z" stroke="none" stroke-width="0" fill="#888888" /></g><g opacity="0.6"><line x1="663.19" y1="246.5" x2="691.3100000000001" y2="246.5" stroke="#888888" stroke-width="5" /><path d="M 706.81 246.50 L 691.31 252.70 L 691.31 240.30 Z" stroke="none" stroke-width="0" fill="#888888" /></g><g opacity="0.6"><line x1="762.8100000000001" y1="246.5" x2="790.9200000000001" y2="246.5" stroke="#888888" stroke-width="5" /><path d="M 806.42 246.50 L 790.92 252.70 L 790.92 240.30 Z" stroke="none" stroke-width="0" fill="#888888" /></g><g opacity="0.6"><line x1="862.4200000000001" y1="246.5" x2="890.53" y2="246.5" stroke="#888888" stroke-width="5" /><path d="M 906.03 246.50 L 890.53 252.70 L 890.53 240.30 Z" stroke="none" stroke-width="0" fill="#888888" /></g><g opacity="0.6"><line x1="962.03" y1="246.5" x2="990.98" y2="246.5" stroke="#888888" stroke-width="4.79" /><path d="M 1005.95 246.50 L 990.98 252.49 L 990.98 240.51 Z" stroke="none" stroke-width="0" fill="#888888" /></g><g opacity="0.6"><path d="M 957.87 231.81 Q 985.73 163.11 1058.98 165.92" stroke="#888888" stroke-width="1" fill="none" /><path d="M 1064.47 166.13 L 1058.89 168.12 L 1059.06 163.72 Z" stroke="none" stroke-width="0" fill="#888888" /></g><g opacity="0.6"><line x1="1061.35" y1="246.5" x2="1090.29" y2="246.5" stroke="#888888" stroke-width="4.79" /><path d="M 1105.26 246.50 L 1090.29 252.49 L 1090.29 240.51 Z" stroke="none" stroke-width="0" fill="#888888" /></g><g opacity="0.6"><path d="M 1094.07 174.04 Q 1131.38 188.01 1121.70 216.66" stroke="#888888" stroke-width="1" fill="none" /><path d="M 1119.94 221.87 L 1119.62 215.96 L 1123.79 217.37 Z" stroke="none" stroke-width="0" fill="#888888" /></g><g opacity="0.6"><line x1="1161.26" y1="246.5" x2="1189.38" y2="246.5" stroke="#888888" stroke-width="5" /><path d="M 1204.88 246.50 L 1189.38 252.70 L 1189.38 240.30 Z" stroke="none" stroke-width="0" fill="#888888" /></g><g opacity="0.6"><line x1="1260.88" y1="246.5" x2="1288.99" y2="246.5" stroke="#888888" stroke-width="5" /><path d="M 1304.49 246.50 L 1288.99 252.70 L 1288.99 240.30 Z" stroke="none" stroke-width="0" fill="#888888" /></g><g opacity="0.6"><line x1="1360.49" y1="246.5" x2="1396.8700000000001" y2="246.5" stroke="#888888" stroke-width="2.89" /><path d="M 1407.11 246.50 L 1396.87 250.59 L 1396.87 242.41 Z" stroke="none" stroke-width="0" fill="#888888" /></g><g opacity="0.6"><path d="M 1356.33 231.81 Q 1384.19 163.11 1450.41 166.95" stroke="#888888" stroke-width="2.89" fill="none" /><path d="M 1460.63 167.54 L 1450.17 171.04 L 1450.65 162.86 Z" stroke="none" stroke-width="0" fill="#888888" /></g><g opacity="0.6"><line x1="1457.1100000000001" y1="246.5" x2="1493.49" y2="246.5" stroke="#888888" stroke-width="2.89" /><path d="M 1503.72 246.50 L 1493.49 250.59 L 1493.49 242.41 Z" stroke="none" stroke-width="0" fill="#888888" /></g><g opacity="0.6"><path d="M 1493.81 176.42 Q 1529.84 188.01 1521.67 212.17" stroke="#888888" stroke-width="2.89" fill="none" /><path d="M 1518.40 221.87 L 1517.80 210.86 L 1525.55 213.48 Z" stroke="none" stroke-width="0" fill="#888888" /></g><g opacity="0.6"><line x1="1559.72" y1="246.5" x2="1587.8400000000001" y2="246.5" stroke="#888888" stroke-width="5" /><path d="M 1603.34 246.50 L 1587.84 252.70 L 1587.84 240.30 Z" stroke="none" stroke-width="0" fill="#888888" /></g><g opacity="0.6"><line x1="1659.3400000000001" y1="246.5" x2="1687.45" y2="246.5" stroke="#888888" stroke-width="5" /><path d="M 1702.95 246.50 L 1687.45 252.70 L 1687.45 240.30 Z" stroke="none" stroke-width="0" fill="#888888" /></g><g opacity="0.6"><line x1="1758.95" y1="246.5" x2="1787.07" y2="246.5" stroke="#888888" stroke-width="5" /><path d="M 1802.57 246.50 L 1787.07 252.70 L 1787.07 240.30 Z" stroke="none" stroke-width="0" fill="#888888" /></g><g opacity="0.6"><line x1="1858.57" y1="246.5" x2="1886.68" y2="246.5" stroke="#888888" stroke-width="5" /><path d="M 1902.18 246.50 L 1886.68 252.70 L 1886.68 240.30 Z" stroke="none" stroke-width="0" fill="#888888" /></g><g opacity="0.6"><line x1="1958.18" y1="246.5" x2="1986.29" y2="246.5" stroke="#888888" stroke-width="5" /><path d="M 2001.79 246.50 L 1986.29 252.70 L 1986.29 240.30 Z" stroke="none" stroke-width="0" fill="#888888" /></g><g opacity="0.6"><line x1="2057.79" y1="246.5" x2="2085.91" y2="246.5" stroke="#888888" stroke-width="5" /><path d="M 2101.41 246.50 L 2085.91 252.70 L 2085.91 240.30 Z" stroke="none" stroke-width="0" fill="#888888" /></g><g opacity="0.6"><line x1="2157.41" y1="246.5" x2="2185.52" y2="246.5" stroke="#888888" stroke-width="5" /><path d="M 2201.02 246.50 L 2185.52 252.70 L 2185.52 240.30 Z" stroke="none" stroke-width="0" fill="#888888" /></g><g opacity="0.6"><line x1="2257.02" y1="246.5" x2="2285.14" y2="246.5" stroke="#888888" stroke-width="5" /><path d="M 2300.64 246.50 L 2285.14 252.70 L 2285.14 240.30 Z" stroke="none" stroke-width="0" fill="#888888" /></g><g opacity="0.6"><line x1="2356.64" y1="246.5" x2="2384.75" y2="246.5" stroke="#888888" stroke-width="5" /><path d="M 2400.25 246.50 L 2384.75 252.70 L 2384.75 240.30 Z" stroke="none" stroke-width="0" fill="#888888" /></g><circle cx="336.35" cy="246.5" r="28" fill="#d73027" stroke="#ffffff" stroke-width="1.5" /><circle cx="435.96000000000004" cy="246.5" r="28" fill="#d73027" stroke="#ffffff" stroke-width="1.5" /><circle cx="535.58" cy="246.5" r="28" fill="#d73027" stroke="#ffffff" stroke-width="1.5" /><circle cx="635.19" cy="246.5" r="28" fill="#d73027" stroke="#ffffff" stroke-width="1.5" /><circle cx="734.8100000000001" cy="246.5" r="28" fill="#d73027" stroke="#ffffff" stroke-width="1.5" /><circle cx="834.4200000000001" cy="246.5" r="28" fill="#d73027" stroke="#ffffff" stroke-width="1.5" /><circle cx="934.03" cy="246.5" r="28" fill="#d73027" stroke="#ffffff" stroke-width="1.5" /><circle cx="1033.65" cy="246.5" r="27.7" fill="#d73027" stroke="#ffffff" stroke-width="1.5" /><circle cx="1083.46" cy="154.43" r="22.3" fill="#aaaaaa" stroke="#ffffff" stroke-width="1.5" /><circle cx="1133.26" cy="246.5" r="28" fill="#d73027" stroke="#ffffff" stroke-width="1.5" /><circle cx="1232.88" cy="246.5" r="28" fill="#d73027" stroke="#ffffff" stroke-width="1.5" /><circle cx="1332.49" cy="246.5" r="28" fill="#d73027" stroke="#ffffff" stroke-width="1.5" /><circle cx="1432.1100000000001" cy="246.5" r="25" fill="#2166ac" stroke="#ffffff" stroke-width="1.5" /><circle cx="1481.91" cy="154.43" r="25" fill="#d73027" stroke="#ffffff" stroke-width="1.5" /><circle cx="1531.72" cy="246.5" r="28" fill="#d73027" stroke="#ffffff" stroke-width="1.5" /><circle cx="1631.3400000000001" cy="246.5" r="28" fill="#d73027" stroke="#ffffff" stroke-width="1.5" /><circle cx="1730.95" cy="246.5" r="28" fill="#d73027" stroke="#ffffff" stroke-width="1.5" /><circle cx="1830.57" cy="246.5" r="28" fill="#d73027" stroke="#ffffff" stroke-width="1.5" /><circle cx="1930.18" cy="246.5" r="28" fill="#d73027" stroke="#ffffff" stroke-width="1.5" /><circle cx="2029.79" cy="246.5" r="28" fill="#d73027" stroke="#ffffff" stroke-width="1.5" /><circle cx="2129.41" cy="246.5" r="28" fill="#d73027" stroke="#ffffff" stroke-width="1.5" /><circle cx="2229.02" cy="246.5" r="28" fill="#d73027" stroke="#ffffff" stroke-width="1.5" /><circle cx="2328.64" cy="246.5" r="28" fill="#d73027" stroke="#ffffff" stroke-width="1.5" /><circle cx="2428.25" cy="246.5" r="28" fill="#d73027" stroke="#ffffff" stroke-width="1.5" /><text x="336.35" y="250.70000000000002" font-size="12" text-anchor="middle" fill="#ffffff">0:G</text><text x="435.96000000000004" y="250.70000000000002" font-size="12" text-anchor="middle" fill="#ffffff">1:C</text><text x="535.58" y="250.70000000000002" font-size="12" text-anchor="middle" fill="#ffffff">2:T</text><text x="635.19" y="250.70000000000002" font-size="12" text-anchor="middle" fill="#ffffff">3:A</text><text x="734.8100000000001" y="250.70000000000002" font-size="12" text-anchor="middle" fill="#ffffff">4:G</text><text x="834.4200000000001" y="250.70000000000002" font-size="12" text-anchor="middle" fill="#ffffff">5:C</text><text x="934.03" y="250.70000000000002" font-size="12" text-anchor="middle" fill="#ffffff">6:T</text><text x="1033.65" y="250.70000000000002" font-size="12" text-anchor="middle" fill="#ffffff">7:A</text><text x="1083.46" y="158.63" font-size="12" text-anchor="middle" fill="#ffffff">8:T</text><text x="1133.26" y="250.70000000000002" font-size="12" text-anchor="middle" fill="#ffffff">9:G</text><text x="1232.88" y="250.70000000000002" font-size="12" text-anchor="middle" fill="#ffffff">10:C</text><text x="1332.49" y="250.70000000000002" font-size="12" text-anchor="middle" fill="#ffffff">11:T</text><text x="1432.1100000000001" y="250.70000000000002" font-size="12" text-anchor="middle" fill="#ffffff">12:A</text><text x="1481.91" y="158.63" font-size="12" text-anchor="middle" fill="#ffffff">13:G</text><text x="1531.72" y="250.70000000000002" font-size="12" text-anchor="middle" fill="#ffffff">14:C</text><text x="1631.3400000000001" y="250.70000000000002" font-size="12" text-anchor="middle" fill="#ffffff">15:T</text><text x="1730.95" y="250.70000000000002" font-size="12" text-anchor="middle" fill="#ffffff">16:A</text><text x="1830.57" y="250.70000000000002" font-size="12" text-anchor="middle" fill="#ffffff">17:G</text><text x="1930.18" y="250.70000000000002" font-size="12" text-anchor="middle" fill="#ffffff">18:C</text><text x="2029.79" y="250.70000000000002" font-size="12" text-anchor="middle" fill="#ffffff">19:T</text><text x="2129.41" y="250.70000000000002" font-size="12" text-anchor="middle" fill="#ffffff">20:A</text><text x="2229.02" y="250.70000000000002" font-size="12" text-anchor="middle" fill="#ffffff">21:G</text><text x="2328.64" y="250.70000000000002" font-size="12" text-anchor="middle" fill="#ffffff">22:C</text><text x="2428.25" y="250.70000000000002" font-size="12" text-anchor="middle" fill="#ffffff">23:T</text><rect x="2710.6" y="34" width="120" height="74" fill="#ffffff" /><rect x="2710.6" y="34" width="120" height="74" fill="none" stroke="#000000" stroke-width="1" /><text x="2740.6" y="53.2" font-size="12" text-anchor="start">read match</text><circle cx="2725.6" cy="49" r="5" fill="#d73027" /><text x="2740.6" y="71.2" font-size="12" text-anchor="start">other</text><circle cx="2725.6" cy="67" r="5" fill="#aaaaaa" /><text x="2740.6" y="89.2" font-size="12" text-anchor="start">spine</text><circle cx="2725.6" cy="85" r="5" fill="#2166ac" /></svg>