<svg xmlns="http://www.w3.org/2000/svg" width="1640" height="500" font-family="DejaVu Sans, Liberation Sans, Arial, sans-serif" fill="black"><rect width="100%" height="100%" fill="white" /><text x="802.3000000000001" y="27.400000000000002" font-size="18" text-anchor="middle">POA graph (12 nodes, 12 spine)</text><g opacity="0.6"><line x1="249.95000000000002" y1="246.5" x2="301.6" y2="246.5" stroke="#888888" stroke-width="1" /><path d="M 307.10 246.50 L 301.60 248.70 L 301.60 244.30 Z" stroke="none" stroke-width="0" fill="#888888" /><text x="278.52" y="253.70000000000002" font-size="10" text-anchor="middle">3</text></g><g opacity="0.6"><line x1="354.7" y1="246.5" x2="406.36" y2="246.5" stroke="#888888" stroke-width="1" /><path d="M 411.86 246.50 L 406.36 248.70 L 406.36 244.30 Z" stroke="none" stroke-width="0" fill="#888888" /><text x="383.28000000000003" y="253.70000000000002" font-size="10" text-anchor="middle">3</text></g><g opacity="0.6"><line x1="459.46000000000004" y1="246.5" x2="506.91" y2="246.5" stroke="#888888" stroke-width="1" /><path d="M 512.41 246.50 L 506.91 248.70 L 506.91 244.30 Z" stroke="none" stroke-width="0" fill="#888888" /><text x="485.93" y="253.70000000000002" font-size="10" text-anchor="middle">3</text></g><g opacity="0.6"><line x1="568.41" y1="246.5" x2="601.67" y2="246.5" stroke="#888888" stroke-width="5" /><path d="M 617.17 246.50 L 601.67 252.70 L 601.67 240.30 Z" stroke="none" stroke-width="0" fill="#888888" /><text x="592.79" y="253.70000000000002" font-size="10" text-anchor="middle">10</text></g><g opacity="0.6"><line x1="673.17" y1="246.5" x2="706.42" y2="246.5" stroke="#888888" stroke-width="5" /><path d="M 721.92 246.50 L 706.42 252.70 L 706.42 240.30 Z" stroke="none" stroke-width="0" fill="#888888" /><text x="697.54" y="253.70000000000002" font-size="10" text-anchor="middle">10</text></g><g opacity="0.6"><line x1="777.9200000000001" y1="246.5" x2="811.1800000000001" y2="246.5" stroke="#888888" stroke-width="5" /><path d="M 826.68 246.50 L 811.18 252.70 L 811.18 240.30 Z" stroke="none" stroke-width="0" fill="#888888" /><text x="802.3000000000001" y="253.70000000000002" font-size="10" text-anchor="middle">10</text></g><g opacity="0.6"><line x1="882.6800000000001" y1="246.5" x2="915.9300000000001" y2="246.5" stroke="#888888" stroke-width="5" /><path d="M 931.43 246.50 L 915.93 252.70 L 915.93 240.30 Z" stroke="none" stroke-width="0" fill="#888888" /><text x="907.0600000000001" y="253.70000000000002" font-size="10" text-anchor="middle">10</text></g><g opacity="0.6"><line x1="987.4300000000001" y1="246.5" x2="1020.69" y2="246.5" stroke="#888888" stroke-width="5" /><path d="M 1036.19 246.50 L 1020.69 252.70 L 1020.69 240.30 Z" stroke="none" stroke-width="0" fill="#888888" /><text x="1011.8100000000001" y="253.70000000000002" font-size="10" text-anchor="middle">10</text></g><g opacity="0.6"><line x1="1092.19" y1="246.5" x2="1139.64" y2="246.5" stroke="#888888" stroke-width="1" /><path d="M 1145.14 246.50 L 1139.64 248.70 L 1139.64 244.30 Z" stroke="none" stroke-width="0" fill="#888888" /><text x="1118.67" y="253.70000000000002" font-size="10" text-anchor="middle">3</text></g><g opacity="0.6"><line x1="1192.74" y1="246.5" x2="1244.4" y2="246.5" stroke="#888888" stroke-width="1" /><path d="M 1249.90 246.50 L 1244.40 248.70 L 1244.40 244.30 Z" stroke="none" stroke-width="0" fill="#888888" /><text x="1221.32" y="253.70000000000002" font-size="10" text-anchor="middle">3</text></g><g opacity="0.6"><line x1="1297.5" y1="246.5" x2="1349.15" y2="246.5" stroke="#888888" stroke-width="1" /><path d="M 1354.65 246.50 L 1349.15 248.70 L 1349.15 244.30 Z" stroke="none" stroke-width="0" fill="#888888" /><text x="1326.08" y="253.70000000000002" font-size="10" text-anchor="middle">3</text></g><circle cx="226.15" cy="246.5" r="23.8" fill="#2166ac" stroke="#ffffff" stroke-width="1.5" /><circle cx="330.90000000000003" cy="246.5" r="23.8" fill="#2166ac" stroke="#ffffff" stroke-width="1.5" /><circle cx="435.66" cy="246.5" r="23.8" fill="#2166ac" stroke="#ffffff" stroke-width="1.5" /><circle cx="540.41" cy="246.5" r="28" fill="#2166ac" stroke="#ffffff" stroke-width="1.5" /><circle cx="645.17" cy="246.5" r="28" fill="#2166ac" stroke="#ffffff" stroke-width="1.5" /><circle cx="749.92" cy="246.5" r="28" fill="#2166ac" stroke="#ffffff" stroke-width="1.5" /><circle cx="854.6800000000001" cy="246.5" r="28" fill="#2166ac" stroke="#ffffff" stroke-width="1.5" /><circle cx="959.4300000000001" cy="246.5" r="28" fill="#2166ac" stroke="#ffffff" stroke-width="1.5" /><circle cx="1064.19" cy="246.5" r="28" fill="#2166ac" stroke="#ffffff" stroke-width="1.5" /><circle cx="1168.94" cy="246.5" r="23.8" fill="#2166ac" stroke="#ffffff" stroke-width="1.5" /><circle cx="1273.7" cy="246.5" r="23.8" fill="#2166ac" stroke="#ffffff" stroke-width="1.5" /><circle cx="1378.45" cy="246.5" r="23.8" fill="#2166ac" stroke="#ffffff" stroke-width="1.5" /><text x="226.15" y="250.70000000000002" font-size="12" text-anchor="middle" fill="#ffffff">0:G</text><text x="330.90000000000003" y="250.70000000000002" font-size="12" text-anchor="middle" fill="#ffffff">1:G</text><text x="435.66" y="250.70000000000002" font-size="12" text-anchor="middle" fill="#ffffff">2:G</text><text x="540.41" y="250.70000000000002" font-size="12" text-anchor="middle" fill="#ffffff">3:C</text><text x="645.17" y="250.70000000000002" font-size="12" text-anchor="middle" fill="#ffffff">4:A</text><text x="749.92" y="250.70000000000002" font-size="12" text-anchor="middle" fill="#ffffff">5:T</text><text x="854.6800000000001" y="250.70000000000002" font-size="12" text-anchor="middle" fill="#ffffff">6:C</text><text x="959.4300000000001" y="250.70000000000002" font-size="12" text-anchor="middle" fill="#ffffff">7:A</text><text x="1064.19" y="250.70000000000002" font-size="12" text-anchor="middle" fill="#ffffff">8:T</text><text x="1168.94" y="250.70000000000002" font-size="12" text-anchor="middle" fill="#ffffff">9:G</text><text x="1273.7" y="250.70000000000002" font-size="12" text-anchor="middle" fill="#ffffff">10:G</text><text x="1378.45" y="250.70000000000002" font-size="12" text-anchor="middle" fill="#ffffff">11:G</text><rect x="1550.6000000000001" y="34" width="80" height="38" fill="#ffffff" /><rect x="1550.6000000000001" y="34" width="80" height="38" fill="none" stroke="#000000" stroke-width="1" /><text x="1580.6000000000001" y="53.2" font-size="12" text-anchor="start">spine</text><circle cx="1565.6000000000001" cy="49" r="5" fill="#2166ac" /></svg>