<svg xmlns="http://www.w3.org/2000/svg" width="2720" height="500" font-family="DejaVu Sans, Liberation Sans, Arial, sans-serif" fill="black"><rect width="100%" height="100%" fill="white" /><text x="1342.3" y="27.400000000000002" font-size="18" text-anchor="middle">POA graph (21 nodes, 21 spine)</text><g opacity="0.6"><line x1="356.75" y1="246.5" x2="394.1" y2="246.5" stroke="#888888" stroke-width="2" /><path d="M 402.10 246.50 L 394.10 249.70 L 394.10 243.30 Z" stroke="none" stroke-width="0" fill="#888888" /></g><g opacity="0.6"><line x1="458.1" y1="246.5" x2="495.46000000000004" y2="246.5" stroke="#888888" stroke-width="2" /><path d="M 503.46 246.50 L 495.46 249.70 L 495.46 243.30 Z" stroke="none" stroke-width="0" fill="#888888" /></g><g opacity="0.6"><line x1="559.46" y1="246.5" x2="596.8100000000001" y2="246.5" stroke="#888888" stroke-width="2" /><path d="M 604.81 246.50 L 596.81 249.70 L 596.81 243.30 Z" stroke="none" stroke-width="0" fill="#888888" /></g><g opacity="0.6"><line x1="660.8100000000001" y1="246.5" x2="698.17" y2="246.5" stroke="#888888" stroke-width="2" /><path d="M 706.17 246.50 L 698.17 249.70 L 698.17 243.30 Z" stroke="none" stroke-width="0" fill="#888888" /></g><g opacity="0.6"><line x1="762.17" y1="246.5" x2="799.52" y2="246.5" stroke="#888888" stroke-width="2" /><path d="M 807.52 246.50 L 799.52 249.70 L 799.52 243.30 Z" stroke="none" stroke-width="0" fill="#888888" /></g><g opacity="0.6"><line x1="863.52" y1="246.5" x2="900.88" y2="246.5" stroke="#888888" stroke-width="2" /><path d="M 908.88 246.50 L 900.88 249.70 L 900.88 243.30 Z" stroke="none" stroke-width="0" fill="#888888" /></g><g opacity="0.6"><line x1="964.88" y1="246.5" x2="1002.23" y2="246.5" stroke="#888888" stroke-width="2" /><path d="M 1010.23 246.50 L 1002.23 249.70 L 1002.23 243.30 Z" stroke="none" stroke-width="0" fill="#888888" /></g><g opacity="0.6"><line x1="1066.23" y1="246.5" x2="1103.59" y2="246.5" stroke="#888888" stroke-width="2" /><path d="M 1111.59 246.50 L 1103.59 249.70 L 1103.59 243.30 Z" stroke="none" stroke-width="0" fill="#888888" /></g><g opacity="0.6"><line x1="1167.59" y1="246.5" x2="1204.94" y2="246.5" stroke="#888888" stroke-width="2" /><path d="M 1212.94 246.50 L 1204.94 249.70 L 1204.94 243.30 Z" stroke="none" stroke-width="0" fill="#888888" /></g><g opacity="0.6"><line x1="1268.94" y1="246.5" x2="1306.3" y2="246.5" stroke="#888888" stroke-width="2" /><path d="M 1314.30 246.50 L 1306.30 249.70 L 1306.30 243.30 Z" stroke="none" stroke-width="0" fill="#888888" /></g><g opacity="0.6"><line x1="1370.3" y1="246.5" x2="1407.66" y2="246.5" stroke="#888888" stroke-width="2" /><path d="M 1415.66 246.50 L 1407.66 249.70 L 1407.66 243.30 Z" stroke="none" stroke-width="0" fill="#888888" /></g><g opacity="0.6"><line x1="1471.66" y1="246.5" x2="1509.01" y2="246.5" stroke="#888888" stroke-width="2" /><path d="M 1517.01 246.50 L 1509.01 249.70 L 1509.01 243.30 Z" stroke="none" stroke-width="0" fill="#888888" /></g><g opacity="0.6"><line x1="1573.01" y1="246.5" x2="1610.3700000000001" y2="246.5" stroke="#888888" stroke-width="2" /><path d="M 1618.37 246.50 L 1610.37 249.70 L 1610.37 243.30 Z" stroke="none" stroke-width="0" fill="#888888" /></g><g opacity="0.6"><line x1="1674.3700000000001" y1="246.5" x2="1711.72" y2="246.5" stroke="#888888" stroke-width="2" /><path d="M 1719.72 246.50 L 1711.72 249.70 L 1711.72 243.30 Z" stroke="none" stroke-width="0" fill="#888888" /></g><g opacity="0.6"><line x1="1775.72" y1="246.5" x2="1813.08" y2="246.5" stroke="#888888" stroke-width="2" /><path d="M 1821.08 246.50 L 1813.08 249.70 L 1813.08 243.30 Z" stroke="none" stroke-width="0" fill="#888888" /></g><g opacity="0.6"><line x1="1877.08" y1="246.5" x2="1914.43" y2="246.5" stroke="#888888" stroke-width="2" /><path d="M 1922.43 246.50 L 1914.43 249.70 L 1914.43 243.30 Z" stroke="none" stroke-width="0" fill="#888888" /></g><g opacity="0.6"><line x1="1978.43" y1="246.5" x2="2015.79" y2="246.5" stroke="#888888" stroke-width="2" /><path d="M 2023.79 246.50 L 2015.79 249.70 L 2015.79 243.30 Z" stroke="none" stroke-width="0" fill="#888888" /></g><g opacity="0.6"><line x1="2079.79" y1="246.5" x2="2117.14" y2="246.5" stroke="#888888" stroke-width="2" /><path d="M 2125.14 246.50 L 2117.14 249.70 L 2117.14 243.30 Z" stroke="none" stroke-width="0" fill="#888888" /></g><g opacity="0.6"><line x1="2181.14" y1="246.5" x2="2218.5" y2="246.5" stroke="#888888" stroke-width="2" /><path d="M 2226.50 246.50 L 2218.50 249.70 L 2218.50 243.30 Z" stroke="none" stroke-width="0" fill="#888888" /></g><g opacity="0.6"><line x1="2282.5" y1="246.5" x2="2319.85" y2="246.5" stroke="#888888" stroke-width="2" /><path d="M 2327.85 246.50 L 2319.85 249.70 L 2319.85 243.30 Z" stroke="none" stroke-width="0" fill="#888888" /></g><circle cx="328.75" cy="246.5" r="28" fill="#2166ac" stroke="#ffffff" stroke-width="1.5" /><circle cx="430.1" cy="246.5" r="28" fill="#2166ac" stroke="#ffffff" stroke-width="1.5" /><circle cx="531.46" cy="246.5" r="28" fill="#2166ac" stroke="#ffffff" stroke-width="1.5" /><circle cx="632.8100000000001" cy="246.5" r="28" fill="#2166ac" stroke="#ffffff" stroke-width="1.5" /><circle cx="734.17" cy="246.5" r="28" fill="#2166ac" stroke="#ffffff" stroke-width="1.5" /><circle cx="835.52" cy="246.5" r="28" fill="#2166ac" stroke="#ffffff" stroke-width="1.5" /><circle cx="936.88" cy="246.5" r="28" fill="#2166ac" stroke="#ffffff" stroke-width="1.5" /><circle cx="1038.23" cy="246.5" r="28" fill="#2166ac" stroke="#ffffff" stroke-width="1.5" /><circle cx="1139.59" cy="246.5" r="28" fill="#2166ac" stroke="#ffffff" stroke-width="1.5" /><circle cx="1240.94" cy="246.5" r="28" fill="#2166ac" stroke="#ffffff" stroke-width="1.5" /><circle cx="1342.3" cy="246.5" r="28" fill="#2166ac" stroke="#ffffff" stroke-width="1.5" /><circle cx="1443.66" cy="246.5" r="28" fill="#2166ac" stroke="#ffffff" stroke-width="1.5" /><circle cx="1545.01" cy="246.5" r="28" fill="#2166ac" stroke="#ffffff" stroke-width="1.5" /><circle cx="1646.3700000000001" cy="246.5" r="28" fill="#2166ac" stroke="#ffffff" stroke-width="1.5" /><circle cx="1747.72" cy="246.5" r="28" fill="#2166ac" stroke="#ffffff" stroke-width="1.5" /><circle cx="1849.08" cy="246.5" r="28" fill="#2166ac" stroke="#ffffff" stroke-width="1.5" /><circle cx="1950.43" cy="246.5" r="28" fill="#2166ac" stroke="#ffffff" stroke-width="1.5" /><circle cx="2051.79" cy="246.5" r="28" fill="#2166ac" stroke="#ffffff" stroke-width="1.5" /><circle cx="2153.14" cy="246.5" r="28" fill="#2166ac" stroke="#ffffff" stroke-width="1.5" /><circle cx="2254.5" cy="246.5" r="28" fill="#2166ac" stroke="#ffffff" stroke-width="1.5" /><circle cx="2355.85" cy="246.5" r="28" fill="#2166ac" stroke="#ffffff" stroke-width="1.5" /><text x="328.75" y="250.70000000000002" font-size="12" text-anchor="middle" fill="#ffffff">0:C</text><text x="430.1" y="250.70000000000002" font-size="12" text-anchor="middle" fill="#ffffff">1:A</text><text x="531.46" y="250.70000000000002" font-size="12" text-anchor="middle" fill="#ffffff">2:G</text><text x="632.8100000000001" y="250.70000000000002" font-size="12" text-anchor="middle" fill="#ffffff">3:C</text><text x="734.17" y="250.70000000000002" font-size="12" text-anchor="middle" fill="#ffffff">4:A</text><text x="835.52" y="250.70000000000002" font-size="12" text-anchor="middle" fill="#ffffff">5:G</text><text x="936.88" y="250.70000000000002" font-size="12" text-anchor="middle" fill="#ffffff">6:C</text><text x="1038.23" y="250.70000000000002" font-size="12" text-anchor="middle" fill="#ffffff">7:A</text><text x="1139.59" y="250.70000000000002" font-size="12" text-anchor="middle" fill="#ffffff">8:G</text><text x="1240.94" y="250.70000000000002" font-size="12" text-anchor="middle" fill="#ffffff">9:C</text><text x="1342.3" y="250.70000000000002" font-size="12" text-anchor="middle" fill="#ffffff">10:A</text><text x="1443.66" y="250.70000000000002" font-size="12" text-anchor="middle" fill="#ffffff">11:G</text><text x="1545.01" y="250.70000000000002" font-size="12" text-anchor="middle" fill="#ffffff">12:C</text><text x="1646.3700000000001" y="250.70000000000002" font-size="12" text-anchor="middle" fill="#ffffff">13:A</text><text x="1747.72" y="250.70000000000002" font-size="12" text-anchor="middle" fill="#ffffff">14:G</text><text x="1849.08" y="250.70000000000002" font-size="12" text-anchor="middle" fill="#ffffff">15:C</text><text x="1950.43" y="250.70000000000002" font-size="12" text-anchor="middle" fill="#ffffff">16:A</text><text x="2051.79" y="250.70000000000002" font-size="12" text-anchor="middle" fill="#ffffff">17:G</text><text x="2153.14" y="250.70000000000002" font-size="12" text-anchor="middle" fill="#ffffff">18:C</text><text x="2254.5" y="250.70000000000002" font-size="12" text-anchor="middle" fill="#ffffff">19:A</text><text x="2355.85" y="250.70000000000002" font-size="12" text-anchor="middle" fill="#ffffff">20:G</text><rect x="2630.6" y="34" width="80" height="38" fill="#ffffff" /><rect x="2630.6" y="34" width="80" height="38" fill="none" stroke="#000000" stroke-width="1" /><text x="2660.6" y="53.2" font-size="12" text-anchor="start">spine</text><circle cx="2645.6" cy="49" r="5" fill="#2166ac" /></svg>