<svg xmlns="http://www.w3.org/2000/svg" width="3080" height="500" font-family="DejaVu Sans, Liberation Sans, Arial, sans-serif" fill="black"><rect width="100%" height="100%" fill="white" /><text x="1522.3" y="27.400000000000002" font-size="18" text-anchor="middle">POA graph (24 nodes, 24 spine)</text><g opacity="0.6"><line x1="390.95" y1="246.5" x2="427.76" y2="246.5" stroke="#888888" stroke-width="2" /><path d="M 435.76 246.50 L 427.76 249.70 L 427.76 243.30 Z" stroke="none" stroke-width="0" fill="#888888" /></g><g opacity="0.6"><line x1="491.76" y1="246.5" x2="528.57" y2="246.5" stroke="#888888" stroke-width="2" /><path d="M 536.57 246.50 L 528.57 249.70 L 528.57 243.30 Z" stroke="none" stroke-width="0" fill="#888888" /></g><g opacity="0.6"><line x1="592.57" y1="246.5" x2="629.39" y2="246.5" stroke="#888888" stroke-width="2" /><path d="M 637.39 246.50 L 629.39 249.70 L 629.39 243.30 Z" stroke="none" stroke-width="0" fill="#888888" /></g><g opacity="0.6"><line x1="693.39" y1="246.5" x2="730.2" y2="246.5" stroke="#888888" stroke-width="2" /><path d="M 738.20 246.50 L 730.20 249.70 L 730.20 243.30 Z" stroke="none" stroke-width="0" fill="#888888" /></g><g opacity="0.6"><line x1="794.2" y1="246.5" x2="831.01" y2="246.5" stroke="#888888" stroke-width="2" /><path d="M 839.01 246.50 L 831.01 249.70 L 831.01 243.30 Z" stroke="none" stroke-width="0" fill="#888888" /></g><g opacity="0.6"><line x1="895.01" y1="246.5" x2="931.83" y2="246.5" stroke="#888888" stroke-width="2" /><path d="M 939.83 246.50 L 931.83 249.70 L 931.83 243.30 Z" stroke="none" stroke-width="0" fill="#888888" /></g><g opacity="0.6"><line x1="995.83" y1="246.5" x2="1032.64" y2="246.5" stroke="#888888" stroke-width="2" /><path d="M 1040.64 246.50 L 1032.64 249.70 L 1032.64 243.30 Z" stroke="none" stroke-width="0" fill="#888888" /></g><g opacity="0.6"><line x1="1096.64" y1="246.5" x2="1133.45" y2="246.5" stroke="#888888" stroke-width="2" /><path d="M 1141.45 246.50 L 1133.45 249.70 L 1133.45 243.30 Z" stroke="none" stroke-width="0" fill="#888888" /></g><g opacity="0.6"><line x1="1197.45" y1="246.5" x2="1234.27" y2="246.5" stroke="#888888" stroke-width="2" /><path d="M 1242.27 246.50 L 1234.27 249.70 L 1234.27 243.30 Z" stroke="none" stroke-width="0" fill="#888888" /></g><g opacity="0.6"><line x1="1298.27" y1="246.5" x2="1335.08" y2="246.5" stroke="#888888" stroke-width="2" /><path d="M 1343.08 246.50 L 1335.08 249.70 L 1335.08 243.30 Z" stroke="none" stroke-width="0" fill="#888888" /></g><g opacity="0.6"><line x1="1399.08" y1="246.5" x2="1435.89" y2="246.5" stroke="#888888" stroke-width="2" /><path d="M 1443.89 246.50 L 1435.89 249.70 L 1435.89 243.30 Z" stroke="none" stroke-width="0" fill="#888888" /></g><g opacity="0.6"><line x1="1499.89" y1="246.5" x2="1536.71" y2="246.5" stroke="#888888" stroke-width="2" /><path d="M 1544.71 246.50 L 1536.71 249.70 L 1536.71 243.30 Z" stroke="none" stroke-width="0" fill="#888888" /></g><g opacity="0.6"><line x1="1600.71" y1="246.5" x2="1637.52" y2="246.5" stroke="#888888" stroke-width="2" /><path d="M 1645.52 246.50 L 1637.52 249.70 L 1637.52 243.30 Z" stroke="none" stroke-width="0" fill="#888888" /></g><g opacity="0.6"><line x1="1701.52" y1="246.5" x2="1738.33" y2="246.5" stroke="#888888" stroke-width="2" /><path d="M 1746.33 246.50 L 1738.33 249.70 L 1738.33 243.30 Z" stroke="none" stroke-width="0" fill="#888888" /></g><g opacity="0.6"><line x1="1802.33" y1="246.5" x2="1839.15" y2="246.5" stroke="#888888" stroke-width="2" /><path d="M 1847.15 246.50 L 1839.15 249.70 L 1839.15 243.30 Z" stroke="none" stroke-width="0" fill="#888888" /></g><g opacity="0.6"><line x1="1903.15" y1="246.5" x2="1939.96" y2="246.5" stroke="#888888" stroke-width="2" /><path d="M 1947.96 246.50 L 1939.96 249.70 L 1939.96 243.30 Z" stroke="none" stroke-width="0" fill="#888888" /></g><g opacity="0.6"><line x1="2003.96" y1="246.5" x2="2040.77" y2="246.5" stroke="#888888" stroke-width="2" /><path d="M 2048.77 246.50 L 2040.77 249.70 L 2040.77 243.30 Z" stroke="none" stroke-width="0" fill="#888888" /></g><g opacity="0.6"><line x1="2104.77" y1="246.5" x2="2141.59" y2="246.5" stroke="#888888" stroke-width="2" /><path d="M 2149.59 246.50 L 2141.59 249.70 L 2141.59 243.30 Z" stroke="none" stroke-width="0" fill="#888888" /></g><g opacity="0.6"><line x1="2205.59" y1="246.5" x2="2242.4" y2="246.5" stroke="#888888" stroke-width="2" /><path d="M 2250.40 246.50 L 2242.40 249.70 L 2242.40 243.30 Z" stroke="none" stroke-width="0" fill="#888888" /></g><g opacity="0.6"><line x1="2306.4" y1="246.5" x2="2343.21" y2="246.5" stroke="#888888" stroke-width="2" /><path d="M 2351.21 246.50 L 2343.21 249.70 L 2343.21 243.30 Z" stroke="none" stroke-width="0" fill="#888888" /></g><g opacity="0.6"><line x1="2407.21" y1="246.5" x2="2444.03" y2="246.5" stroke="#888888" stroke-width="2" /><path d="M 2452.03 246.50 L 2444.03 249.70 L 2444.03 243.30 Z" stroke="none" stroke-width="0" fill="#888888" /></g><g opacity="0.6"><line x1="2508.03" y1="246.5" x2="2544.84" y2="246.5" stroke="#888888" stroke-width="2" /><path d="M 2552.84 246.50 L 2544.84 249.70 L 2544.84 243.30 Z" stroke="none" stroke-width="0" fill="#888888" /></g><g opacity="0.6"><line x1="2608.84" y1="246.5" x2="2645.65" y2="246.5" stroke="#888888" stroke-width="2" /><path d="M 2653.65 246.50 L 2645.65 249.70 L 2645.65 243.30 Z" stroke="none" stroke-width="0" fill="#888888" /></g><circle cx="362.95" cy="246.5" r="28" fill="#2166ac" stroke="#ffffff" stroke-width="1.5" /><circle cx="463.76" cy="246.5" r="28" fill="#2166ac" stroke="#ffffff" stroke-width="1.5" /><circle cx="564.57" cy="246.5" r="28" fill="#2166ac" stroke="#ffffff" stroke-width="1.5" /><circle cx="665.39" cy="246.5" r="28" fill="#2166ac" stroke="#ffffff" stroke-width="1.5" /><circle cx="766.2" cy="246.5" r="28" fill="#2166ac" stroke="#ffffff" stroke-width="1.5" /><circle cx="867.01" cy="246.5" r="28" fill="#2166ac" stroke="#ffffff" stroke-width="1.5" /><circle cx="967.83" cy="246.5" r="28" fill="#2166ac" stroke="#ffffff" stroke-width="1.5" /><circle cx="1068.64" cy="246.5" r="28" fill="#2166ac" stroke="#ffffff" stroke-width="1.5" /><circle cx="1169.45" cy="246.5" r="28" fill="#2166ac" stroke="#ffffff" stroke-width="1.5" /><circle cx="1270.27" cy="246.5" r="28" fill="#2166ac" stroke="#ffffff" stroke-width="1.5" /><circle cx="1371.08" cy="246.5" r="28" fill="#2166ac" stroke="#ffffff" stroke-width="1.5" /><circle cx="1471.89" cy="246.5" r="28" fill="#2166ac" stroke="#ffffff" stroke-width="1.5" /><circle cx="1572.71" cy="246.5" r="28" fill="#2166ac" stroke="#ffffff" stroke-width="1.5" /><circle cx="1673.52" cy="246.5" r="28" fill="#2166ac" stroke="#ffffff" stroke-width="1.5" /><circle cx="1774.33" cy="246.5" r="28" fill="#2166ac" stroke="#ffffff" stroke-width="1.5" /><circle cx="1875.15" cy="246.5" r="28" fill="#2166ac" stroke="#ffffff" stroke-width="1.5" /><circle cx="1975.96" cy="246.5" r="28" fill="#2166ac" stroke="#ffffff" stroke-width="1.5" /><circle cx="2076.77" cy="246.5" r="28" fill="#2166ac" stroke="#ffffff" stroke-width="1.5" /><circle cx="2177.59" cy="246.5" r="28" fill="#2166ac" stroke="#ffffff" stroke-width="1.5" /><circle cx="2278.4" cy="246.5" r="28" fill="#2166ac" stroke="#ffffff" stroke-width="1.5" /><circle cx="2379.21" cy="246.5" r="28" fill="#2166ac" stroke="#ffffff" stroke-width="1.5" /><circle cx="2480.03" cy="246.5" r="28" fill="#2166ac" stroke="#ffffff" stroke-width="1.5" /><circle cx="2580.84" cy="246.5" r="28" fill="#2166ac" stroke="#ffffff" stroke-width="1.5" /><circle cx="2681.65" cy="246.5" r="28" fill="#2166ac" stroke="#ffffff" stroke-width="1.5" /><text x="362.95" y="250.70000000000002" font-size="12" text-anchor="middle" fill="#ffffff">0:G</text><text x="463.76" y="250.70000000000002" font-size="12" text-anchor="middle" fill="#ffffff">1:A</text><text x="564.57" y="250.70000000000002" font-size="12" text-anchor="middle" fill="#ffffff">2:A</text><text x="665.39" y="250.70000000000002" font-size="12" text-anchor="middle" fill="#ffffff">3:G</text><text x="766.2" y="250.70000000000002" font-size="12" text-anchor="middle" fill="#ffffff">4:A</text><text x="867.01" y="250.70000000000002" font-size="12" text-anchor="middle" fill="#ffffff">5:A</text><text x="967.83" y="250.70000000000002" font-size="12" text-anchor="middle" fill="#ffffff">6:G</text><text x="1068.64" y="250.70000000000002" font-size="12" text-anchor="middle" fill="#ffffff">7:A</text><text x="1169.45" y="250.70000000000002" font-size="12" text-anchor="middle" fill="#ffffff">8:A</text><text x="1270.27" y="250.70000000000002" font-size="12" text-anchor="middle" fill="#ffffff">9:G</text><text x="1371.08" y="250.70000000000002" font-size="12" text-anchor="middle" fill="#ffffff">10:A</text><text x="1471.89" y="250.70000000000002" font-size="12" text-anchor="middle" fill="#ffffff">11:A</text><text x="1572.71" y="250.70000000000002" font-size="12" text-anchor="middle" fill="#ffffff">12:G</text><text x="1673.52" y="250.70000000000002" font-size="12" text-anchor="middle" fill="#ffffff">13:A</text><text x="1774.33" y="250.70000000000002" font-size="12" text-anchor="middle" fill="#ffffff">14:A</text><text x="1875.15" y="250.70000000000002" font-size="12" text-anchor="middle" fill="#ffffff">15:G</text><text x="1975.96" y="250.70000000000002" font-size="12" text-anchor="middle" fill="#ffffff">16:A</text><text x="2076.77" y="250.70000000000002" font-size="12" text-anchor="middle" fill="#ffffff">17:A</text><text x="2177.59" y="250.70000000000002" font-size="12" text-anchor="middle" fill="#ffffff">18:G</text><text x="2278.4" y="250.70000000000002" font-size="12" text-anchor="middle" fill="#ffffff">19:A</text><text x="2379.21" y="250.70000000000002" font-size="12" text-anchor="middle" fill="#ffffff">20:A</text><text x="2480.03" y="250.70000000000002" font-size="12" text-anchor="middle" fill="#ffffff">21:G</text><text x="2580.84" y="250.70000000000002" font-size="12" text-anchor="middle" fill="#ffffff">22:A</text><text x="2681.65" y="250.70000000000002" font-size="12" text-anchor="middle" fill="#ffffff">23:A</text><rect x="2990.6" y="34" width="80" height="38" fill="#ffffff" /><rect x="2990.6" y="34" width="80" height="38" fill="none" stroke="#000000" stroke-width="1" /><text x="3020.6" y="53.2" font-size="12" text-anchor="start">spine</text><circle cx="3005.6" cy="49" r="5" fill="#2166ac" /></svg>