<svg xmlns="http://www.w3.org/2000/svg" width="2480" height="500" font-family="DejaVu Sans, Liberation Sans, Arial, sans-serif" fill="black"><rect width="100%" height="100%" fill="white" /><text x="1202.3" y="27.400000000000002" font-size="18" text-anchor="middle">POA graph (19 nodes, 19 spine) [read overlay]</text><g opacity="0.6"><line x1="330.15000000000003" y1="246.5" x2="358.66" y2="246.5" stroke="#888888" stroke-width="5" /><path d="M 374.16 246.50 L 358.66 252.70 L 358.66 240.30 Z" stroke="none" stroke-width="0" fill="#888888" /></g><g opacity="0.6"><line x1="430.16" y1="246.5" x2="458.68" y2="246.5" stroke="#888888" stroke-width="5" /><path d="M 474.18 246.50 L 458.68 252.70 L 458.68 240.30 Z" stroke="none" stroke-width="0" fill="#888888" /></g><g opacity="0.6"><line x1="530.1800000000001" y1="246.5" x2="558.7" y2="246.5" stroke="#888888" stroke-width="5" /><path d="M 574.20 246.50 L 558.70 252.70 L 558.70 240.30 Z" stroke="none" stroke-width="0" fill="#888888" /></g><g opacity="0.6"><line x1="630.2" y1="246.5" x2="658.72" y2="246.5" stroke="#888888" stroke-width="5" /><path d="M 674.22 246.50 L 658.72 252.70 L 658.72 240.30 Z" stroke="none" stroke-width="0" fill="#888888" /></g><g opacity="0.6"><line x1="730.22" y1="246.5" x2="758.73" y2="246.5" stroke="#888888" stroke-width="5" /><path d="M 774.23 246.50 L 758.73 252.70 L 758.73 240.30 Z" stroke="none" stroke-width="0" fill="#888888" /></g><g opacity="0.6"><line x1="830.23" y1="246.5" x2="858.75" y2="246.5" stroke="#888888" stroke-width="5" /><path d="M 874.25 246.50 L 858.75 252.70 L 858.75 240.30 Z" stroke="none" stroke-width="0" fill="#888888" /></g><g opacity="0.6"><line x1="930.25" y1="246.5" x2="958.77" y2="246.5" stroke="#888888" stroke-width="5" /><path d="M 974.27 246.50 L 958.77 252.70 L 958.77 240.30 Z" stroke="none" stroke-width="0" fill="#888888" /></g><g opacity="0.6"><line x1="1030.27" y1="246.5" x2="1058.78" y2="246.5" stroke="#888888" stroke-width="5" /><path d="M 1074.28 246.50 L 1058.78 252.70 L 1058.78 240.30 Z" stroke="none" stroke-width="0" fill="#888888" /></g><g opacity="0.6"><line x1="1130.28" y1="246.5" x2="1158.8" y2="246.5" stroke="#888888" stroke-width="5" /><path d="M 1174.30 246.50 L 1158.80 252.70 L 1158.80 240.30 Z" stroke="none" stroke-width="0" fill="#888888" /></g><g opacity="0.6"><line x1="1230.3" y1="246.5" x2="1258.82" y2="246.5" stroke="#888888" stroke-width="5" /><path d="M 1274.32 246.50 L 1258.82 252.70 L 1258.82 240.30 Z" stroke="none" stroke-width="0" fill="#888888" /></g><g opacity="0.6"><line x1="1330.32" y1="246.5" x2="1358.83" y2="246.5" stroke="#888888" stroke-width="5" /><path d="M 1374.33 246.50 L 1358.83 252.70 L 1358.83 240.30 Z" stroke="none" stroke-width="0" fill="#888888" /></g><g opacity="0.6"><line x1="1430.33" y1="246.5" x2="1458.8500000000001" y2="246.5" stroke="#888888" stroke-width="5" /><path d="M 1474.35 246.50 L 1458.85 252.70 L 1458.85 240.30 Z" stroke="none" stroke-width="0" fill="#888888" /></g><g opacity="0.6"><line x1="1530.3500000000001" y1="246.5" x2="1558.8700000000001" y2="246.5" stroke="#888888" stroke-width="5" /><path d="M 1574.37 246.50 L 1558.87 252.70 L 1558.87 240.30 Z" stroke="none" stroke-width="0" fill="#888888" /></g><g opacity="0.6"><line x1="1630.3700000000001" y1="246.5" x2="1658.89" y2="246.5" stroke="#888888" stroke-width="5" /><path d="M 1674.39 246.50 L 1658.89 252.70 L 1658.89 240.30 Z" stroke="none" stroke-width="0" fill="#888888" /></g><g opacity="0.6"><line x1="1730.39" y1="246.5" x2="1770.29" y2="246.5" stroke="#888888" stroke-width="1" /><path d="M 1775.79 246.50 L 1770.29 248.70 L 1770.29 244.30 Z" stroke="none" stroke-width="0" fill="#888888" /></g><g opacity="0.6"><line x1="1829.02" y1="246.5" x2="1870.3" y2="246.5" stroke="#888888" stroke-width="1" /><path d="M 1875.80 246.50 L 1870.30 248.70 L 1870.30 244.30 Z" stroke="none" stroke-width="0" fill="#888888" /></g><g opacity="0.6"><line x1="1929.03" y1="246.5" x2="1970.32" y2="246.5" stroke="#888888" stroke-width="1" /><path d="M 1975.82 246.50 L 1970.32 248.70 L 1970.32 244.30 Z" stroke="none" stroke-width="0" fill="#888888" /></g><g opacity="0.6"><line x1="2029.05" y1="246.5" x2="2070.34" y2="246.5" stroke="#888888" stroke-width="1" /><path d="M 2075.84 246.50 L 2070.34 248.70 L 2070.34 244.30 Z" stroke="none" stroke-width="0" fill="#888888" /></g><circle cx="302.15000000000003" cy="246.5" r="28" fill="#d73027" stroke="#ffffff" stroke-width="1.5" /><circle cx="402.16" cy="246.5" r="28" fill="#d73027" stroke="#ffffff" stroke-width="1.5" /><circle cx="502.18" cy="246.5" r="28" fill="#d73027" stroke="#ffffff" stroke-width="1.5" /><circle cx="602.2" cy="246.5" r="28" fill="#d73027" stroke="#ffffff" stroke-width="1.5" /><circle cx="702.22" cy="246.5" r="28" fill="#d73027" stroke="#ffffff" stroke-width="1.5" /><circle cx="802.23" cy="246.5" r="28" fill="#d73027" stroke="#ffffff" stroke-width="1.5" /><circle cx="902.25" cy="246.5" r="28" fill="#d73027" stroke="#ffffff" stroke-width="1.5" /><circle cx="1002.27" cy="246.5" r="28" fill="#d73027" stroke="#ffffff" stroke-width="1.5" /><circle cx="1102.28" cy="246.5" r="28" fill="#d73027" stroke="#ffffff" stroke-width="1.5" /><circle cx="1202.3" cy="246.5" r="28" fill="#d73027" stroke="#ffffff" stroke-width="1.5" /><circle cx="1302.32" cy="246.5" r="28" fill="#d73027" stroke="#ffffff" stroke-width="1.5" /><circle cx="1402.33" cy="246.5" r="28" fill="#d73027" stroke="#ffffff" stroke-width="1.5" /><circle cx="1502.3500000000001" cy="246.5" r="28" fill="#d73027" stroke="#ffffff" stroke-width="1.5" /><circle cx="1602.3700000000001" cy="246.5" r="28" fill="#d73027" stroke="#ffffff" stroke-width="1.5" /><circle cx="1702.39" cy="246.5" r="28" fill="#d73027" stroke="#ffffff" stroke-width="1.5" /><circle cx="1802.4" cy="246.5" r="26.62" fill="#2166ac" stroke="#ffffff" stroke-width="1.5" /><circle cx="1902.42" cy="246.5" r="26.62" fill="#2166ac" stroke="#ffffff" stroke-width="1.5" /><circle cx="2002.44" cy="246.5" r="26.62" fill="#2166ac" stroke="#ffffff" stroke-width="1.5" /><circle cx="2102.45" cy="246.5" r="26.62" fill="#2166ac" stroke="#ffffff" stroke-width="1.5" /><text x="302.15000000000003" y="250.70000000000002" font-size="12" text-anchor="middle" fill="#ffffff">0:G</text><text x="402.16" y="250.70000000000002" font-size="12" text-anchor="middle" fill="#ffffff">1:C</text><text x="502.18" y="250.70000000000002" font-size="12" text-anchor="middle" fill="#ffffff">2:T</text><text x="602.2" y="250.70000000000002" font-size="12" text-anchor="middle" fill="#ffffff">3:A</text><text x="702.22" y="250.70000000000002" font-size="12" text-anchor="middle" fill="#ffffff">4:G</text><text x="802.23" y="250.70000000000002" font-size="12" text-anchor="middle" fill="#ffffff">5:C</text><text x="902.25" y="250.70000000000002" font-size="12" text-anchor="middle" fill="#ffffff">6:T</text><text x="1002.27" y="250.70000000000002" font-size="12" text-anchor="middle" fill="#ffffff">7:A</text><text x="1102.28" y="250.70000000000002" font-size="12" text-anchor="middle" fill="#ffffff">8:G</text><text x="1202.3" y="250.70000000000002" font-size="12" text-anchor="middle" fill="#ffffff">9:C</text><text x="1302.32" y="250.70000000000002" font-size="12" text-anchor="middle" fill="#ffffff">10:T</text><text x="1402.33" y="250.70000000000002" font-size="12" text-anchor="middle" fill="#ffffff">11:A</text><text x="1502.3500000000001" y="250.70000000000002" font-size="12" text-anchor="middle" fill="#ffffff">12:G</text><text x="1602.3700000000001" y="250.70000000000002" font-size="12" text-anchor="middle" fill="#ffffff">13:C</text><text x="1702.39" y="250.70000000000002" font-size="12" text-anchor="middle" fill="#ffffff">14:T</text><text x="1802.4" y="250.70000000000002" font-size="12" text-anchor="middle" fill="#ffffff">15:A</text><text x="1902.42" y="250.70000000000002" font-size="12" text-anchor="middle" fill="#ffffff">16:G</text><text x="2002.44" y="250.70000000000002" font-size="12" text-anchor="middle" fill="#ffffff">17:C</text><text x="2102.45" y="250.70000000000002" font-size="12" text-anchor="middle" fill="#ffffff">18:T</text><rect x="2350.6" y="34" width="120" height="56" fill="#ffffff" /><rect x="2350.6" y="34" width="120" height="56" fill="none" stroke="#000000" stroke-width="1" /><text x="2380.6" y="53.2" font-size="12" text-anchor="start">read match</text><circle cx="2365.6" cy="49" r="5" fill="#d73027" /><text x="2380.6" y="71.2" font-size="12" text-anchor="start">spine</text><circle cx="2365.6" cy="67" r="5" fill="#2166ac" /></svg>