<svg xmlns="http://www.w3.org/2000/svg" width="2840" height="500" font-family="DejaVu Sans, Liberation Sans, Arial, sans-serif" fill="black"><rect width="100%" height="100%" fill="white" /><text x="1402.3" y="27.400000000000002" font-size="18" text-anchor="middle">POA graph (24 nodes, 22 spine)</text><g opacity="0.6"><line x1="368.15000000000003" y1="246.5" x2="397.8" y2="246.5" stroke="#888888" stroke-width="5" /><path d="M 413.30 246.50 L 397.80 252.70 L 397.80 240.30 Z" stroke="none" stroke-width="0" fill="#888888" /></g><g opacity="0.6"><line x1="469.3" y1="246.5" x2="498.96000000000004" y2="246.5" stroke="#888888" stroke-width="5" /><path d="M 514.46 246.50 L 498.96 252.70 L 498.96 240.30 Z" stroke="none" stroke-width="0" fill="#888888" /></g><g opacity="0.6"><line x1="570.46" y1="246.5" x2="600.12" y2="246.5" stroke="#888888" stroke-width="5" /><path d="M 615.62 246.50 L 600.12 252.70 L 600.12 240.30 Z" stroke="none" stroke-width="0" fill="#888888" /></g><g opacity="0.6"><line x1="671.62" y1="246.5" x2="701.28" y2="246.5" stroke="#888888" stroke-width="5" /><path d="M 716.78 246.50 L 701.28 252.70 L 701.28 240.30 Z" stroke="none" stroke-width="0" fill="#888888" /></g><g opacity="0.6"><line x1="772.78" y1="246.5" x2="802.4300000000001" y2="246.5" stroke="#888888" stroke-width="5" /><path d="M 817.93 246.50 L 802.43 252.70 L 802.43 240.30 Z" stroke="none" stroke-width="0" fill="#888888" /></g><g opacity="0.6"><line x1="873.9300000000001" y1="246.5" x2="903.59" y2="246.5" stroke="#888888" stroke-width="5" /><path d="M 919.09 246.50 L 903.59 252.70 L 903.59 240.30 Z" stroke="none" stroke-width="0" fill="#888888" /></g><g opacity="0.6"><line x1="975.09" y1="246.5" x2="1005.58" y2="246.5" stroke="#888888" stroke-width="4.79" /><path d="M 1020.55 246.50 L 1005.58 252.49 L 1005.58 240.51 Z" stroke="none" stroke-width="0" fill="#888888" /></g><g opacity="0.6"><path d="M 971.03 231.98 Q 999.94 162.53 1074.27 165.76" stroke="#888888" stroke-width="1" fill="none" /><path d="M 1079.76 166.00 L 1074.17 167.96 L 1074.36 163.56 Z" stroke="none" stroke-width="0" fill="#888888" /></g><g opacity="0.6"><line x1="1075.95" y1="246.5" x2="1106.43" y2="246.5" stroke="#888888" stroke-width="4.79" /><path d="M 1121.41 246.50 L 1106.43 252.49 L 1106.43 240.51 Z" stroke="none" stroke-width="0" fill="#888888" /></g><g opacity="0.6"><path d="M 1109.56 173.97 Q 1147.13 187.82 1137.64 216.73" stroke="#888888" stroke-width="1" fill="none" /><path d="M 1135.92 221.96 L 1135.55 216.05 L 1139.73 217.42 Z" stroke="none" stroke-width="0" fill="#888888" /></g><g opacity="0.6"><line x1="1177.41" y1="246.5" x2="1207.06" y2="246.5" stroke="#888888" stroke-width="5" /><path d="M 1222.56 246.50 L 1207.06 252.70 L 1207.06 240.30 Z" stroke="none" stroke-width="0" fill="#888888" /></g><g opacity="0.6"><line x1="1278.56" y1="246.5" x2="1308.22" y2="246.5" stroke="#888888" stroke-width="5" /><path d="M 1323.72 246.50 L 1308.22 252.70 L 1308.22 240.30 Z" stroke="none" stroke-width="0" fill="#888888" /></g><g opacity="0.6"><line x1="1379.72" y1="246.5" x2="1417.64" y2="246.5" stroke="#888888" stroke-width="2.89" /><path d="M 1427.88 246.50 L 1417.64 250.59 L 1417.64 242.41 Z" stroke="none" stroke-width="0" fill="#888888" /></g><g opacity="0.6"><path d="M 1375.66 231.98 Q 1404.57 162.53 1471.87 166.76" stroke="#888888" stroke-width="2.89" fill="none" /><path d="M 1482.08 167.40 L 1471.61 170.84 L 1472.12 162.67 Z" stroke="none" stroke-width="0" fill="#888888" /></g><g opacity="0.6"><line x1="1477.88" y1="246.5" x2="1515.8" y2="246.5" stroke="#888888" stroke-width="2.89" /><path d="M 1526.04 246.50 L 1515.80 250.59 L 1515.80 242.41 Z" stroke="none" stroke-width="0" fill="#888888" /></g><g opacity="0.6"><path d="M 1515.49 176.34 Q 1551.76 187.82 1543.75 212.23" stroke="#888888" stroke-width="2.89" fill="none" /><path d="M 1540.55 221.96 L 1539.86 210.96 L 1547.64 213.51 Z" stroke="none" stroke-width="0" fill="#888888" /></g><g opacity="0.6"><line x1="1582.04" y1="246.5" x2="1611.69" y2="246.5" stroke="#888888" stroke-width="5" /><path d="M 1627.19 246.50 L 1611.69 252.70 L 1611.69 240.30 Z" stroke="none" stroke-width="0" fill="#888888" /></g><g opacity="0.6"><line x1="1683.19" y1="246.5" x2="1712.8500000000001" y2="246.5" stroke="#888888" stroke-width="5" /><path d="M 1728.35 246.50 L 1712.85 252.70 L 1712.85 240.30 Z" stroke="none" stroke-width="0" fill="#888888" /></g><g opacity="0.6"><line x1="1784.3500000000001" y1="246.5" x2="1814.01" y2="246.5" stroke="#888888" stroke-width="5" /><path d="M 1829.51 246.50 L 1814.01 252.70 L 1814.01 240.30 Z" stroke="none" stroke-width="0" fill="#888888" /></g><g opacity="0.6"><line x1="1885.51" y1="246.5" x2="1915.17" y2="246.5" stroke="#888888" stroke-width="5" /><path d="M 1930.67 246.50 L 1915.17 252.70 L 1915.17 240.30 Z" stroke="none" stroke-width="0" fill="#888888" /></g><g opacity="0.6"><line x1="1986.67" y1="246.5" x2="2016.32" y2="246.5" stroke="#888888" stroke-width="5" /><path d="M 2031.82 246.50 L 2016.32 252.70 L 2016.32 240.30 Z" stroke="none" stroke-width="0" fill="#888888" /></g><g opacity="0.6"><line x1="2087.82" y1="246.5" x2="2117.48" y2="246.5" stroke="#888888" stroke-width="5" /><path d="M 2132.98 246.50 L 2117.48 252.70 L 2117.48 240.30 Z" stroke="none" stroke-width="0" fill="#888888" /></g><g opacity="0.6"><line x1="2188.98" y1="246.5" x2="2218.64" y2="246.5" stroke="#888888" stroke-width="5" /><path d="M 2234.14 246.50 L 2218.64 252.70 L 2218.64 240.30 Z" stroke="none" stroke-width="0" fill="#888888" /></g><g opacity="0.6"><line x1="2290.14" y1="246.5" x2="2319.8" y2="246.5" stroke="#888888" stroke-width="5" /><path d="M 2335.30 246.50 L 2319.80 252.70 L 2319.80 240.30 Z" stroke="none" stroke-width="0" fill="#888888" /></g><g opacity="0.6"><line x1="2391.3" y1="246.5" x2="2420.9500000000003" y2="246.5" stroke="#888888" stroke-width="5" /><path d="M 2436.45 246.50 L 2420.95 252.70 L 2420.95 240.30 Z" stroke="none" stroke-width="0" fill="#888888" /></g><circle cx="340.15000000000003" cy="246.5" r="28" fill="#2166ac" stroke="#ffffff" stroke-width="1.5" /><circle cx="441.3" cy="246.5" r="28" fill="#2166ac" stroke="#ffffff" stroke-width="1.5" /><circle cx="542.46" cy="246.5" r="28" fill="#2166ac" stroke="#ffffff" stroke-width="1.5" /><circle cx="643.62" cy="246.5" r="28" fill="#2166ac" stroke="#ffffff" stroke-width="1.5" /><circle cx="744.78" cy="246.5" r="28" fill="#2166ac" stroke="#ffffff" stroke-width="1.5" /><circle cx="845.9300000000001" cy="246.5" r="28" fill="#2166ac" stroke="#ffffff" stroke-width="1.5" /><circle cx="947.09" cy="246.5" r="28" fill="#2166ac" stroke="#ffffff" stroke-width="1.5" /><circle cx="1048.25" cy="246.5" r="27.7" fill="#2166ac" stroke="#ffffff" stroke-width="1.5" /><circle cx="1098.83" cy="154.43" r="22.3" fill="#aaaaaa" stroke="#ffffff" stroke-width="1.5" /><circle cx="1149.41" cy="246.5" r="28" fill="#2166ac" stroke="#ffffff" stroke-width="1.5" /><circle cx="1250.56" cy="246.5" r="28" fill="#2166ac" stroke="#ffffff" stroke-width="1.5" /><circle cx="1351.72" cy="246.5" r="28" fill="#2166ac" stroke="#ffffff" stroke-width="1.5" /><circle cx="1452.88" cy="246.5" r="25" fill="#2166ac" stroke="#ffffff" stroke-width="1.5" /><circle cx="1503.46" cy="154.43" r="25" fill="#aaaaaa" stroke="#ffffff" stroke-width="1.5" /><circle cx="1554.04" cy="246.5" r="28" fill="#2166ac" stroke="#ffffff" stroke-width="1.5" /><circle cx="1655.19" cy="246.5" r="28" fill="#2166ac" stroke="#ffffff" stroke-width="1.5" /><circle cx="1756.3500000000001" cy="246.5" r="28" fill="#2166ac" stroke="#ffffff" stroke-width="1.5" /><circle cx="1857.51" cy="246.5" r="28" fill="#2166ac" stroke="#ffffff" stroke-width="1.5" /><circle cx="1958.67" cy="246.5" r="28" fill="#2166ac" stroke="#ffffff" stroke-width="1.5" /><circle cx="2059.82" cy="246.5" r="28" fill="#2166ac" stroke="#ffffff" stroke-width="1.5" /><circle cx="2160.98" cy="246.5" r="28" fill="#2166ac" stroke="#ffffff" stroke-width="1.5" /><circle cx="2262.14" cy="246.5" r="28" fill="#2166ac" stroke="#ffffff" stroke-width="1.5" /><circle cx="2363.3" cy="246.5" r="28" fill="#2166ac" stroke="#ffffff" stroke-width="1.5" /><circle cx="2464.4500000000003" cy="246.5" r="28" fill="#2166ac" stroke="#ffffff" stroke-width="1.5" /><text x="340.15000000000003" y="250.70000000000002" font-size="12" text-anchor="middle" fill="#ffffff">0:G</text><text x="441.3" y="250.70000000000002" font-size="12" text-anchor="middle" fill="#ffffff">1:C</text><text x="542.46" y="250.70000000000002" font-size="12" text-anchor="middle" fill="#ffffff">2:T</text><text x="643.62" y="250.70000000000002" font-size="12" text-anchor="middle" fill="#ffffff">3:A</text><text x="744.78" y="250.70000000000002" font-size="12" text-anchor="middle" fill="#ffffff">4:G</text><text x="845.9300000000001" y="250.70000000000002" font-size="12" text-anchor="middle" fill="#ffffff">5:C</text><text x="947.09" y="250.70000000000002" font-size="12" text-anchor="middle" fill="#ffffff">6:T</text><text x="1048.25" y="250.70000000000002" font-size="12" text-anchor="middle" fill="#ffffff">7:A</text><text x="1098.83" y="158.63" font-size="12" text-anchor="middle" fill="#ffffff">8:T</text><text x="1149.41" y="250.70000000000002" font-size="12" text-anchor="middle" fill="#ffffff">9:G</text><text x="1250.56" y="250.70000000000002" font-size="12" text-anchor="middle" fill="#ffffff">10:C</text><text x="1351.72" y="250.70000000000002" font-size="12" text-anchor="middle" fill="#ffffff">11:T</text><text x="1452.88" y="250.70000000000002" font-size="12" text-anchor="middle" fill="#ffffff">12:A</text><text x="1503.46" y="158.63" font-size="12" text-anchor="middle" fill="#ffffff">13:G</text><text x="1554.04" y="250.70000000000002" font-size="12" text-anchor="middle" fill="#ffffff">14:C</text><text x="1655.19" y="250.70000000000002" font-size="12" text-anchor="middle" fill="#ffffff">15:T</text><text x="1756.3500000000001" y="250.70000000000002" font-size="12" text-anchor="middle" fill="#ffffff">16:A</text><text x="1857.51" y="250.70000000000002" font-size="12" text-anchor="middle" fill="#ffffff">17:G</text><text x="1958.67" y="250.70000000000002" font-size="12" text-anchor="middle" fill="#ffffff">18:C</text><text x="2059.82" y="250.70000000000002" font-size="12" text-anchor="middle" fill="#ffffff">19:T</text><text x="2160.98" y="250.70000000000002" font-size="12" text-anchor="middle" fill="#ffffff">20:A</text><text x="2262.14" y="250.70000000000002" font-size="12" text-anchor="middle" fill="#ffffff">21:G</text><text x="2363.3" y="250.70000000000002" font-size="12" text-anchor="middle" fill="#ffffff">22:C</text><text x="2464.4500000000003" y="250.70000000000002" font-size="12" text-anchor="middle" fill="#ffffff">23:T</text><rect x="2750.6" y="34" width="80" height="56" fill="#ffffff" /><rect x="2750.6" y="34" width="80" height="56" fill="none" stroke="#000000" stroke-width="1" /><text x="2780.6" y="53.2" font-size="12" text-anchor="start">spine</text><circle cx="2765.6" cy="49" r="5" fill="#2166ac" /><text x="2780.6" y="71.2" font-size="12" text-anchor="start">other</text><circle cx="2765.6" cy="67" r="5" fill="#aaaaaa" /></svg>