<svg xmlns="http://www.w3.org/2000/svg" width="1640" height="500" font-family="DejaVu Sans, Liberation Sans, Arial, sans-serif" fill="black"><rect width="100%" height="100%" fill="white" /><text x="802.3000000000001" y="27.400000000000002" font-size="18" text-anchor="middle">POA graph (12 nodes, 12 spine)</text><g opacity="0.6"><line x1="254.15" y1="246.5" x2="294.90000000000003" y2="246.5" stroke="#888888" stroke-width="2" /><path d="M 302.90 246.50 L 294.90 249.70 L 294.90 243.30 Z" stroke="none" stroke-width="0" fill="#888888" /></g><g opacity="0.6"><line x1="358.90000000000003" y1="246.5" x2="399.66" y2="246.5" stroke="#888888" stroke-width="2" /><path d="M 407.66 246.50 L 399.66 249.70 L 399.66 243.30 Z" stroke="none" stroke-width="0" fill="#888888" /></g><g opacity="0.6"><line x1="463.66" y1="246.5" x2="504.41" y2="246.5" stroke="#888888" stroke-width="2" /><path d="M 512.41 246.50 L 504.41 249.70 L 504.41 243.30 Z" stroke="none" stroke-width="0" fill="#888888" /></g><g opacity="0.6"><line x1="568.41" y1="246.5" x2="609.17" y2="246.5" stroke="#888888" stroke-width="2" /><path d="M 617.17 246.50 L 609.17 249.70 L 609.17 243.30 Z" stroke="none" stroke-width="0" fill="#888888" /></g><g opacity="0.6"><line x1="673.17" y1="246.5" x2="713.92" y2="246.5" stroke="#888888" stroke-width="2" /><path d="M 721.92 246.50 L 713.92 249.70 L 713.92 243.30 Z" stroke="none" stroke-width="0" fill="#888888" /></g><g opacity="0.6"><line x1="777.9200000000001" y1="246.5" x2="818.6800000000001" y2="246.5" stroke="#888888" stroke-width="2" /><path d="M 826.68 246.50 L 818.68 249.70 L 818.68 243.30 Z" stroke="none" stroke-width="0" fill="#888888" /></g><g opacity="0.6"><line x1="882.6800000000001" y1="246.5" x2="923.4300000000001" y2="246.5" stroke="#888888" stroke-width="2" /><path d="M 931.43 246.50 L 923.43 249.70 L 923.43 243.30 Z" stroke="none" stroke-width="0" fill="#888888" /></g><g opacity="0.6"><line x1="987.4300000000001" y1="246.5" x2="1028.19" y2="246.5" stroke="#888888" stroke-width="2" /><path d="M 1036.19 246.50 L 1028.19 249.70 L 1028.19 243.30 Z" stroke="none" stroke-width="0" fill="#888888" /></g><g opacity="0.6"><line x1="1092.19" y1="246.5" x2="1132.94" y2="246.5" stroke="#888888" stroke-width="2" /><path d="M 1140.94 246.50 L 1132.94 249.70 L 1132.94 243.30 Z" stroke="none" stroke-width="0" fill="#888888" /></g><g opacity="0.6"><line x1="1196.94" y1="246.5" x2="1237.7" y2="246.5" stroke="#888888" stroke-width="2" /><path d="M 1245.70 246.50 L 1237.70 249.70 L 1237.70 243.30 Z" stroke="none" stroke-width="0" fill="#888888" /></g><g opacity="0.6"><line x1="1301.7" y1="246.5" x2="1342.45" y2="246.5" stroke="#888888" stroke-width="2" /><path d="M 1350.45 246.50 L 1342.45 249.70 L 1342.45 243.30 Z" stroke="none" stroke-width="0" fill="#888888" /></g><circle cx="226.15" cy="246.5" r="28" fill="#2166ac" stroke="#ffffff" stroke-width="1.5" /><circle cx="330.90000000000003" cy="246.5" r="28" fill="#2166ac" stroke="#ffffff" stroke-width="1.5" /><circle cx="435.66" cy="246.5" r="28" fill="#2166ac" stroke="#ffffff" stroke-width="1.5" /><circle cx="540.41" cy="246.5" r="28" fill="#2166ac" stroke="#ffffff" stroke-width="1.5" /><circle cx="645.17" cy="246.5" r="28" fill="#2166ac" stroke="#ffffff" stroke-width="1.5" /><circle cx="749.92" cy="246.5" r="28" fill="#2166ac" stroke="#ffffff" stroke-width="1.5" /><circle cx="854.6800000000001" cy="246.5" r="28" fill="#2166ac" stroke="#ffffff" stroke-width="1.5" /><circle cx="959.4300000000001" cy="246.5" r="28" fill="#2166ac" stroke="#ffffff" stroke-width="1.5" /><circle cx="1064.19" cy="246.5" r="28" fill="#2166ac" stroke="#ffffff" stroke-width="1.5" /><circle cx="1168.94" cy="246.5" r="28" fill="#2166ac" stroke="#ffffff" stroke-width="1.5" /><circle cx="1273.7" cy="246.5" r="28" fill="#2166ac" stroke="#ffffff" stroke-width="1.5" /><circle cx="1378.45" cy="246.5" r="28" fill="#2166ac" stroke="#ffffff" stroke-width="1.5" /><text x="226.15" y="250.70000000000002" font-size="12" text-anchor="middle" fill="#ffffff">0:G</text><text x="330.90000000000003" y="250.70000000000002" font-size="12" text-anchor="middle" fill="#ffffff">1:A</text><text x="435.66" y="250.70000000000002" font-size="12" text-anchor="middle" fill="#ffffff">2:A</text><text x="540.41" y="250.70000000000002" font-size="12" text-anchor="middle" fill="#ffffff">3:G</text><text x="645.17" y="250.70000000000002" font-size="12" text-anchor="middle" fill="#ffffff">4:A</text><text x="749.92" y="250.70000000000002" font-size="12" text-anchor="middle" fill="#ffffff">5:A</text><text x="854.6800000000001" y="250.70000000000002" font-size="12" text-anchor="middle" fill="#ffffff">6:G</text><text x="959.4300000000001" y="250.70000000000002" font-size="12" text-anchor="middle" fill="#ffffff">7:A</text><text x="1064.19" y="250.70000000000002" font-size="12" text-anchor="middle" fill="#ffffff">8:A</text><text x="1168.94" y="250.70000000000002" font-size="12" text-anchor="middle" fill="#ffffff">9:G</text><text x="1273.7" y="250.70000000000002" font-size="12" text-anchor="middle" fill="#ffffff">10:A</text><text x="1378.45" y="250.70000000000002" font-size="12" text-anchor="middle" fill="#ffffff">11:A</text><rect x="1550.6000000000001" y="34" width="80" height="38" fill="#ffffff" /><rect x="1550.6000000000001" y="34" width="80" height="38" fill="none" stroke="#000000" stroke-width="1" /><text x="1580.6000000000001" y="53.2" font-size="12" text-anchor="start">spine</text><circle cx="1565.6000000000001" cy="49" r="5" fill="#2166ac" /></svg>