<svg xmlns="http://www.w3.org/2000/svg" width="920" height="500" font-family="DejaVu Sans, Liberation Sans, Arial, sans-serif" fill="black"><rect width="100%" height="100%" fill="white" /><text x="442.3" y="27.400000000000002" font-size="18" text-anchor="middle">POA graph (7 nodes, 6 spine)</text><g opacity="0.6"><line x1="183.92000000000002" y1="246.5" x2="223.12" y2="246.5" stroke="#888888" stroke-width="5" /><path d="M 238.62 246.50 L 223.12 252.70 L 223.12 240.30 Z" stroke="none" stroke-width="0" fill="#888888" /><text x="211.27" y="253.70000000000002" font-size="10" text-anchor="middle">10</text></g><g opacity="0.6"><line x1="294.62" y1="246.5" x2="333.82" y2="246.5" stroke="#888888" stroke-width="5" /><path d="M 349.32 246.50 L 333.82 252.70 L 333.82 240.30 Z" stroke="none" stroke-width="0" fill="#888888" /><text x="321.97" y="253.70000000000002" font-size="10" text-anchor="middle">10</text></g><g opacity="0.6"><line x1="405.32" y1="246.5" x2="446.23" y2="246.5" stroke="#888888" stroke-width="4.5600000000000005" /><path d="M 460.61 246.50 L 446.23 252.26 L 446.23 240.74 Z" stroke="none" stroke-width="0" fill="#888888" /><text x="432.97" y="253.70000000000002" font-size="10" text-anchor="middle">9</text></g><g opacity="0.6"><path d="M 401.80 232.92 Q 437.32 158.95 518.11 164.98" stroke="#888888" stroke-width="1" fill="none" /><path d="M 523.60 165.39 L 517.95 167.17 L 518.28 162.79 Z" stroke="none" stroke-width="0" fill="#888888" /></g><g opacity="0.6"><line x1="515.41" y1="246.5" x2="556.33" y2="246.5" stroke="#888888" stroke-width="4.5600000000000005" /><path d="M 570.71 246.50 L 556.33 252.26 L 556.33 240.74 Z" stroke="none" stroke-width="0" fill="#888888" /><text x="543.0600000000001" y="253.70000000000002" font-size="10" text-anchor="middle">9</text></g><g opacity="0.6"><path d="M 555.01 173.80 Q 594.06 186.63 585.73 217.20" stroke="#888888" stroke-width="1" fill="none" /><path d="M 584.29 222.50 L 583.61 216.62 L 587.86 217.77 Z" stroke="none" stroke-width="0" fill="#888888" /></g><g opacity="0.6"><line x1="626.71" y1="246.5" x2="665.91" y2="246.5" stroke="#888888" stroke-width="5" /><path d="M 681.41 246.50 L 665.91 252.70 L 665.91 240.30 Z" stroke="none" stroke-width="0" fill="#888888" /><text x="654.0600000000001" y="253.70000000000002" font-size="10" text-anchor="middle">10</text></g><circle cx="155.92000000000002" cy="246.5" r="28" fill="#2166ac" stroke="#ffffff" stroke-width="1.5" /><circle cx="266.62" cy="246.5" r="28" fill="#2166ac" stroke="#ffffff" stroke-width="1.5" /><circle cx="377.32" cy="246.5" r="28" fill="#2166ac" stroke="#ffffff" stroke-width="1.5" /><circle cx="488.01" cy="246.5" r="27.400000000000002" fill="#2166ac" stroke="#ffffff" stroke-width="1.5" /><circle cx="543.36" cy="154.43" r="22.6" fill="#aaaaaa" stroke="#ffffff" stroke-width="1.5" /><circle cx="598.71" cy="246.5" r="28" fill="#2166ac" stroke="#ffffff" stroke-width="1.5" /><circle cx="709.41" cy="246.5" r="28" fill="#2166ac" stroke="#ffffff" stroke-width="1.5" /><text x="155.92000000000002" y="250.70000000000002" font-size="12" text-anchor="middle" fill="#ffffff">0:C</text><text x="266.62" y="250.70000000000002" font-size="12" text-anchor="middle" fill="#ffffff">1:A</text><text x="377.32" y="250.70000000000002" font-size="12" text-anchor="middle" fill="#ffffff">2:T</text><text x="488.01" y="250.70000000000002" font-size="12" text-anchor="middle" fill="#ffffff">3:C</text><text x="543.36" y="158.63" font-size="12" text-anchor="middle" fill="#ffffff">4:G</text><text x="598.71" y="250.70000000000002" font-size="12" text-anchor="middle" fill="#ffffff">5:A</text><text x="709.41" y="250.70000000000002" font-size="12" text-anchor="middle" fill="#ffffff">6:T</text><rect x="830.6" y="34" width="80" height="56" fill="#ffffff" /><rect x="830.6" y="34" width="80" height="56" fill="none" stroke="#000000" stroke-width="1" /><text x="860.6" y="53.2" font-size="12" text-anchor="start">spine</text><circle cx="845.6" cy="49" r="5" fill="#2166ac" /><text x="860.6" y="71.2" font-size="12" text-anchor="start">other</text><circle cx="845.6" cy="67" r="5" fill="#aaaaaa" /><text x="543.4" y="127.8" text-anchor="middle" font-size="11" font-family="sans-serif" fill="#444444">1</text>
</svg>