<svg xmlns="http://www.w3.org/2000/svg" width="2120" height="500" font-family="DejaVu Sans, Liberation Sans, Arial, sans-serif" fill="black"><rect width="100%" height="100%" fill="white" /><text x="1042.3" y="27.400000000000002" font-size="18" text-anchor="middle">POA graph (22 nodes, 16 spine)</text><g opacity="0.6"><line x1="299.75" y1="246.5" x2="330.99" y2="246.5" stroke="#888888" stroke-width="5" /><path d="M 346.49 246.50 L 330.99 252.70 L 330.99 240.30 Z" stroke="none" stroke-width="0" fill="#888888" /></g><g opacity="0.6"><line x1="402.49" y1="246.5" x2="433.73" y2="246.5" stroke="#888888" stroke-width="5" /><path d="M 449.23 246.50 L 433.73 252.70 L 433.73 240.30 Z" stroke="none" stroke-width="0" fill="#888888" /></g><g opacity="0.6"><line x1="505.23" y1="246.5" x2="538.1800000000001" y2="246.5" stroke="#888888" stroke-width="4.5600000000000005" /><path d="M 552.57 246.50 L 538.18 252.26 L 538.18 240.74 Z" stroke="none" stroke-width="0" fill="#888888" /></g><g opacity="0.6"><path d="M 498.08 227.81 Q 505.58 174.78 557.66 170.01" stroke="#888888" stroke-width="1" fill="none" /><path d="M 563.14 169.51 L 557.86 172.20 L 557.46 167.82 Z" stroke="none" stroke-width="0" fill="#888888" /></g><g opacity="0.6"><line x1="607.37" y1="246.5" x2="640.32" y2="246.5" stroke="#888888" stroke-width="4.5600000000000005" /><path d="M 654.71 246.50 L 640.32 252.26 L 640.32 240.74 Z" stroke="none" stroke-width="0" fill="#888888" /></g><g opacity="0.6"><line x1="602.57" y1="154.43" x2="654.61" y2="154.43" stroke="#888888" stroke-width="1" /><path d="M 660.11 154.43 L 654.61 156.63 L 654.61 152.23 Z" stroke="none" stroke-width="0" fill="#888888" /></g><g opacity="0.6"><path d="M 682.71 177.03 Q 705.73 200.47 687.04 215.11" stroke="#888888" stroke-width="1" fill="none" /><path d="M 682.71 218.50 L 685.68 213.38 L 688.39 216.84 Z" stroke="none" stroke-width="0" fill="#888888" /></g><g opacity="0.6"><line x1="710.71" y1="246.5" x2="743.0600000000001" y2="246.5" stroke="#888888" stroke-width="4.5600000000000005" /><path d="M 757.45 246.50 L 743.06 252.26 L 743.06 240.74 Z" stroke="none" stroke-width="0" fill="#888888" /></g><g opacity="0.6"><path d="M 696.35 222.05 Q 685.38 187.62 717.89 176.02" stroke="#888888" stroke-width="1" fill="none" /><path d="M 723.07 174.17 L 718.63 178.09 L 717.15 173.94 Z" stroke="none" stroke-width="0" fill="#888888" /></g><g opacity="0.6"><path d="M 745.09 174.17 Q 782.78 187.62 773.48 216.81" stroke="#888888" stroke-width="1" fill="none" /><path d="M 771.81 222.05 L 771.38 216.14 L 775.57 217.48 Z" stroke="none" stroke-width="0" fill="#888888" /></g><g opacity="0.6"><line x1="813.45" y1="246.5" x2="844.69" y2="246.5" stroke="#888888" stroke-width="5" /><path d="M 860.19 246.50 L 844.69 252.70 L 844.69 240.30 Z" stroke="none" stroke-width="0" fill="#888888" /></g><g opacity="0.6"><line x1="916.19" y1="246.5" x2="948.54" y2="246.5" stroke="#888888" stroke-width="4.5600000000000005" /><path d="M 962.93 246.50 L 948.54 252.26 L 948.54 240.74 Z" stroke="none" stroke-width="0" fill="#888888" /></g><g opacity="0.6"><path d="M 901.83 222.05 Q 890.86 187.62 923.37 176.02" stroke="#888888" stroke-width="1" fill="none" /><path d="M 928.55 174.17 L 924.11 178.09 L 922.63 173.94 Z" stroke="none" stroke-width="0" fill="#888888" /></g><g opacity="0.6"><path d="M 950.57 174.17 Q 988.26 187.62 978.96 216.81" stroke="#888888" stroke-width="1" fill="none" /><path d="M 977.29 222.05 L 976.86 216.14 L 981.05 217.48 Z" stroke="none" stroke-width="0" fill="#888888" /></g><g opacity="0.6"><line x1="1018.9300000000001" y1="246.5" x2="1050.17" y2="246.5" stroke="#888888" stroke-width="5" /><path d="M 1065.67 246.50 L 1050.17 252.70 L 1050.17 240.30 Z" stroke="none" stroke-width="0" fill="#888888" /></g><g opacity="0.6"><line x1="1121.67" y1="246.5" x2="1152.91" y2="246.5" stroke="#888888" stroke-width="5" /><path d="M 1168.41 246.50 L 1152.91 252.70 L 1152.91 240.30 Z" stroke="none" stroke-width="0" fill="#888888" /></g><g opacity="0.6"><line x1="1224.41" y1="246.5" x2="1255.65" y2="246.5" stroke="#888888" stroke-width="5" /><path d="M 1271.15 246.50 L 1255.65 252.70 L 1255.65 240.30 Z" stroke="none" stroke-width="0" fill="#888888" /></g><g opacity="0.6"><line x1="1327.15" y1="246.5" x2="1358.39" y2="246.5" stroke="#888888" stroke-width="5" /><path d="M 1373.89 246.50 L 1358.39 252.70 L 1358.39 240.30 Z" stroke="none" stroke-width="0" fill="#888888" /></g><g opacity="0.6"><line x1="1429.89" y1="246.5" x2="1462.24" y2="246.5" stroke="#888888" stroke-width="4.5600000000000005" /><path d="M 1476.63 246.50 L 1462.24 252.26 L 1462.24 240.74 Z" stroke="none" stroke-width="0" fill="#888888" /></g><g opacity="0.6"><path d="M 1401.89 218.50 Q 1378.87 200.47 1398.04 180.95" stroke="#888888" stroke-width="1" fill="none" /><path d="M 1401.89 177.03 L 1399.61 182.50 L 1396.47 179.41 Z" stroke="none" stroke-width="0" fill="#888888" /></g><g opacity="0.6"><line x1="1424.49" y1="154.43" x2="1476.53" y2="154.43" stroke="#888888" stroke-width="1" /><path d="M 1482.03 154.43 L 1476.53 156.63 L 1476.53 152.23 Z" stroke="none" stroke-width="0" fill="#888888" /></g><g opacity="0.6"><path d="M 1504.63 177.03 Q 1527.65 200.46 1508.96 215.11" stroke="#888888" stroke-width="1" fill="none" /><path d="M 1504.63 218.50 L 1507.60 213.38 L 1510.32 216.84 Z" stroke="none" stroke-width="0" fill="#888888" /></g><g opacity="0.6"><line x1="1532.63" y1="246.5" x2="1563.8700000000001" y2="246.5" stroke="#888888" stroke-width="5" /><path d="M 1579.37 246.50 L 1563.87 252.70 L 1563.87 240.30 Z" stroke="none" stroke-width="0" fill="#888888" /></g><g opacity="0.6"><line x1="1635.3700000000001" y1="246.5" x2="1666.6100000000001" y2="246.5" stroke="#888888" stroke-width="5" /><path d="M 1682.11 246.50 L 1666.61 252.70 L 1666.61 240.30 Z" stroke="none" stroke-width="0" fill="#888888" /></g><g opacity="0.6"><line x1="1738.1100000000001" y1="246.5" x2="1769.3500000000001" y2="246.5" stroke="#888888" stroke-width="5" /><path d="M 1784.85 246.50 L 1769.35 252.70 L 1769.35 240.30 Z" stroke="none" stroke-width="0" fill="#888888" /></g><circle cx="271.75" cy="246.5" r="28" fill="#2166ac" stroke="#ffffff" stroke-width="1.5" /><circle cx="374.49" cy="246.5" r="28" fill="#2166ac" stroke="#ffffff" stroke-width="1.5" /><circle cx="477.23" cy="246.5" r="28" fill="#2166ac" stroke="#ffffff" stroke-width="1.5" /><circle cx="579.97" cy="246.5" r="27.400000000000002" fill="#2166ac" stroke="#ffffff" stroke-width="1.5" /><circle cx="579.97" cy="154.43" r="22.6" fill="#aaaaaa" stroke="#ffffff" stroke-width="1.5" /><circle cx="682.71" cy="154.43" r="22.6" fill="#aaaaaa" stroke="#ffffff" stroke-width="1.5" /><circle cx="682.71" cy="246.5" r="28" fill="#2166ac" stroke="#ffffff" stroke-width="1.5" /><circle cx="734.08" cy="154.43" r="22.6" fill="#aaaaaa" stroke="#ffffff" stroke-width="1.5" /><circle cx="785.45" cy="246.5" r="28" fill="#2166ac" stroke="#ffffff" stroke-width="1.5" /><circle cx="888.19" cy="246.5" r="28" fill="#2166ac" stroke="#ffffff" stroke-width="1.5" /><circle cx="939.5600000000001" cy="154.43" r="22.6" fill="#aaaaaa" stroke="#ffffff" stroke-width="1.5" /><circle cx="990.9300000000001" cy="246.5" r="28" fill="#2166ac" stroke="#ffffff" stroke-width="1.5" /><circle cx="1093.67" cy="246.5" r="28" fill="#2166ac" stroke="#ffffff" stroke-width="1.5" /><circle cx="1196.41" cy="246.5" r="28" fill="#2166ac" stroke="#ffffff" stroke-width="1.5" /><circle cx="1299.15" cy="246.5" r="28" fill="#2166ac" stroke="#ffffff" stroke-width="1.5" /><circle cx="1401.89" cy="246.5" r="28" fill="#2166ac" stroke="#ffffff" stroke-width="1.5" /><circle cx="1401.89" cy="154.43" r="22.6" fill="#aaaaaa" stroke="#ffffff" stroke-width="1.5" /><circle cx="1504.63" cy="154.43" r="22.6" fill="#aaaaaa" stroke="#ffffff" stroke-width="1.5" /><circle cx="1504.63" cy="246.5" r="28" fill="#2166ac" stroke="#ffffff" stroke-width="1.5" /><circle cx="1607.3700000000001" cy="246.5" r="28" fill="#2166ac" stroke="#ffffff" stroke-width="1.5" /><circle cx="1710.1100000000001" cy="246.5" r="28" fill="#2166ac" stroke="#ffffff" stroke-width="1.5" /><circle cx="1812.8500000000001" cy="246.5" r="28" fill="#2166ac" stroke="#ffffff" stroke-width="1.5" /><text x="271.75" y="250.70000000000002" font-size="12" text-anchor="middle" fill="#ffffff">0:G</text><text x="374.49" y="250.70000000000002" font-size="12" text-anchor="middle" fill="#ffffff">1:C</text><text x="477.23" y="250.70000000000002" font-size="12" text-anchor="middle" fill="#ffffff">2:T</text><text x="579.97" y="250.70000000000002" font-size="12" text-anchor="middle" fill="#ffffff">3:A</text><text x="579.97" y="158.63" font-size="12" text-anchor="middle" fill="#ffffff">4:T</text><text x="682.71" y="158.63" font-size="12" text-anchor="middle" fill="#ffffff">5:A</text><text x="682.71" y="250.70000000000002" font-size="12" text-anchor="middle" fill="#ffffff">6:G</text><text x="734.08" y="158.63" font-size="12" text-anchor="middle" fill="#ffffff">7:G</text><text x="785.45" y="250.70000000000002" font-size="12" text-anchor="middle" fill="#ffffff">8:C</text><text x="888.19" y="250.70000000000002" font-size="12" text-anchor="middle" fill="#ffffff">9:T</text><text x="939.5600000000001" y="158.63" font-size="12" text-anchor="middle" fill="#ffffff">10:A</text><text x="990.9300000000001" y="250.70000000000002" font-size="12" text-anchor="middle" fill="#ffffff">11:A</text><text x="1093.67" y="250.70000000000002" font-size="12" text-anchor="middle" fill="#ffffff">12:G</text><text x="1196.41" y="250.70000000000002" font-size="12" text-anchor="middle" fill="#ffffff">13:C</text><text x="1299.15" y="250.70000000000002" font-size="12" text-anchor="middle" fill="#ffffff">14:T</text><text x="1401.89" y="250.70000000000002" font-size="12" text-anchor="middle" fill="#ffffff">15:A</text><text x="1401.89" y="158.63" font-size="12" text-anchor="middle" fill="#ffffff">16:C</text><text x="1504.63" y="158.63" font-size="12" text-anchor="middle" fill="#ffffff">17:C</text><text x="1504.63" y="250.70000000000002" font-size="12" text-anchor="middle" fill="#ffffff">18:G</text><text x="1607.3700000000001" y="250.70000000000002" font-size="12" text-anchor="middle" fill="#ffffff">19:C</text><text x="1710.1100000000001" y="250.70000000000002" font-size="12" text-anchor="middle" fill="#ffffff">20:T</text><text x="1812.8500000000001" y="250.70000000000002" font-size="12" text-anchor="middle" fill="#ffffff">21:A</text><rect x="2030.6000000000001" y="34" width="80" height="56" fill="#ffffff" /><rect x="2030.6000000000001" y="34" width="80" height="56" fill="none" stroke="#000000" stroke-width="1" /><text x="2060.6" y="53.2" font-size="12" text-anchor="start">spine</text><circle cx="2045.6000000000001" cy="49" r="5" fill="#2166ac" /><text x="2060.6" y="71.2" font-size="12" text-anchor="start">other</text><circle cx="2045.6000000000001" cy="67" r="5" fill="#aaaaaa" /></svg>